<mxfile host="Electron" modified="2024-12-18T13:40:20.274Z" agent="Mozilla/5.0 (Windows NT 10.0; Win64; x64) AppleWebKit/537.36 (KHTML, like Gecko) draw.io/24.0.4 Chrome/120.0.6099.109 Electron/28.1.0 Safari/537.36" etag="n0qmJKp5nmq5PgDHfiQU" version="24.0.4" type="device" pages="13">
  <diagram id="lSfFFjF8gDWjZvb0whbz" name="wireframe диаграмма">
    <mxGraphModel dx="1434" dy="844" grid="1" gridSize="10" guides="1" tooltips="1" connect="1" arrows="1" fold="1" page="1" pageScale="1" pageWidth="827" pageHeight="1169" math="0" shadow="0">
      <root>
        <mxCell id="0" />
        <mxCell id="1" parent="0" />
        <mxCell id="jje2cOGIHxlLrvhpfTVt-1" value="Практика" style="strokeWidth=1;shadow=0;dashed=0;align=center;html=1;shape=mxgraph.mockup.containers.window;align=left;verticalAlign=top;spacingLeft=8;strokeColor2=#008cff;strokeColor3=#c4c4c4;fontColor=#666666;mainText=;fontSize=17;labelBackgroundColor=none;whiteSpace=wrap;" parent="1" vertex="1">
          <mxGeometry x="139" y="110" width="550" height="380" as="geometry" />
        </mxCell>
        <mxCell id="jje2cOGIHxlLrvhpfTVt-2" value="Описание какое-то" style="strokeWidth=1;shadow=0;dashed=0;align=center;html=1;shape=mxgraph.mockup.text.textBox;fontColor=#666666;align=left;fontSize=17;spacingLeft=4;spacingTop=-3;whiteSpace=wrap;strokeColor=#666666;mainText=" parent="1" vertex="1">
          <mxGeometry x="139" y="140" width="550" height="30" as="geometry" />
        </mxCell>
        <mxCell id="jje2cOGIHxlLrvhpfTVt-3" value="" style="strokeWidth=1;shadow=0;dashed=0;align=center;html=1;shape=mxgraph.mockup.text.textBox;fontColor=#666666;align=left;fontSize=17;spacingLeft=4;spacingTop=-3;whiteSpace=wrap;strokeColor=#666666;mainText=" parent="1" vertex="1">
          <mxGeometry x="139" y="170" width="550" height="30" as="geometry" />
        </mxCell>
        <mxCell id="jje2cOGIHxlLrvhpfTVt-4" value="" style="verticalLabelPosition=bottom;shadow=0;dashed=0;align=center;html=1;verticalAlign=top;strokeWidth=1;shape=mxgraph.mockup.graphics.lineChart;strokeColor=none;strokeColor2=#666666;strokeColor3=#008cff;strokeColor4=#dddddd;" parent="1" vertex="1">
          <mxGeometry x="200" y="250" width="440" height="200" as="geometry" />
        </mxCell>
        <mxCell id="u2c_hMsH3fZPUO4HPQJ9-2" value="" style="endArrow=none;dashed=1;html=1;rounded=0;exitX=1.009;exitY=0.475;exitDx=0;exitDy=0;exitPerimeter=0;" parent="1" source="jje2cOGIHxlLrvhpfTVt-4" edge="1">
          <mxGeometry width="50" height="50" relative="1" as="geometry">
            <mxPoint x="760" y="330" as="sourcePoint" />
            <mxPoint x="750" y="300" as="targetPoint" />
          </mxGeometry>
        </mxCell>
        <mxCell id="u2c_hMsH3fZPUO4HPQJ9-3" value="Графичек" style="text;html=1;align=center;verticalAlign=middle;whiteSpace=wrap;rounded=0;" parent="1" vertex="1">
          <mxGeometry x="740" y="270" width="60" height="30" as="geometry" />
        </mxCell>
      </root>
    </mxGraphModel>
  </diagram>
  <diagram id="R-Iku8Nylv5hYNQJ0LWR" name="диаграмма user-case">
    <mxGraphModel dx="1434" dy="844" grid="1" gridSize="10" guides="1" tooltips="1" connect="1" arrows="1" fold="1" page="1" pageScale="1" pageWidth="827" pageHeight="1169" math="0" shadow="0">
      <root>
        <mxCell id="0" />
        <mxCell id="1" parent="0" />
        <mxCell id="3Mp1vTJyh1CXZGZxZsrx-1" value="Практика" style="swimlane;whiteSpace=wrap;html=1;fillColor=#dae8fc;strokeColor=#6c8ebf;" vertex="1" parent="1">
          <mxGeometry x="250" y="100" width="470" height="370" as="geometry" />
        </mxCell>
        <mxCell id="3Mp1vTJyh1CXZGZxZsrx-3" value="Ввести не геом. последовательность" style="ellipse;whiteSpace=wrap;html=1;fillColor=#dae8fc;strokeColor=#6c8ebf;" vertex="1" parent="3Mp1vTJyh1CXZGZxZsrx-1">
          <mxGeometry x="250" y="140" width="130" height="50" as="geometry" />
        </mxCell>
        <mxCell id="3Mp1vTJyh1CXZGZxZsrx-9" value="Ввести геом. последовательность" style="ellipse;whiteSpace=wrap;html=1;fillColor=#dae8fc;strokeColor=#6c8ebf;" vertex="1" parent="3Mp1vTJyh1CXZGZxZsrx-1">
          <mxGeometry x="250" y="50" width="130" height="50" as="geometry" />
        </mxCell>
        <mxCell id="3Mp1vTJyh1CXZGZxZsrx-8" value="Смотреть на графичек" style="ellipse;whiteSpace=wrap;html=1;fillColor=#dae8fc;strokeColor=#6c8ebf;" vertex="1" parent="3Mp1vTJyh1CXZGZxZsrx-1">
          <mxGeometry x="30" y="210" width="130" height="50" as="geometry" />
        </mxCell>
        <mxCell id="3Mp1vTJyh1CXZGZxZsrx-7" value="ВСЁ СТЕРЕТЬ" style="ellipse;whiteSpace=wrap;html=1;fillColor=#dae8fc;strokeColor=#6c8ebf;" vertex="1" parent="3Mp1vTJyh1CXZGZxZsrx-1">
          <mxGeometry x="30" y="280" width="130" height="50" as="geometry" />
        </mxCell>
        <mxCell id="3Mp1vTJyh1CXZGZxZsrx-10" value="Ввести последовательность" style="ellipse;whiteSpace=wrap;html=1;fillColor=#dae8fc;strokeColor=#6c8ebf;" vertex="1" parent="3Mp1vTJyh1CXZGZxZsrx-1">
          <mxGeometry x="34" y="80" width="130" height="50" as="geometry" />
        </mxCell>
        <mxCell id="3Mp1vTJyh1CXZGZxZsrx-15" value="" style="endArrow=none;html=1;rounded=0;entryX=1;entryY=0.5;entryDx=0;entryDy=0;exitX=0;exitY=0.5;exitDx=0;exitDy=0;endFill=0;dashed=1;startArrow=open;startFill=0;" edge="1" parent="3Mp1vTJyh1CXZGZxZsrx-1" source="3Mp1vTJyh1CXZGZxZsrx-9" target="3Mp1vTJyh1CXZGZxZsrx-10">
          <mxGeometry width="50" height="50" relative="1" as="geometry">
            <mxPoint x="140" y="360" as="sourcePoint" />
            <mxPoint x="190" y="310" as="targetPoint" />
          </mxGeometry>
        </mxCell>
        <mxCell id="3Mp1vTJyh1CXZGZxZsrx-16" value="&amp;lt;&amp;lt;включить&amp;gt;&amp;gt;" style="edgeLabel;html=1;align=center;verticalAlign=middle;resizable=0;points=[];" vertex="1" connectable="0" parent="3Mp1vTJyh1CXZGZxZsrx-15">
          <mxGeometry x="-0.082" y="4" relative="1" as="geometry">
            <mxPoint as="offset" />
          </mxGeometry>
        </mxCell>
        <mxCell id="3Mp1vTJyh1CXZGZxZsrx-17" value="" style="endArrow=classic;html=1;rounded=0;entryX=1;entryY=0.5;entryDx=0;entryDy=0;exitX=0;exitY=0.5;exitDx=0;exitDy=0;dashed=1;" edge="1" parent="3Mp1vTJyh1CXZGZxZsrx-1" source="3Mp1vTJyh1CXZGZxZsrx-3" target="3Mp1vTJyh1CXZGZxZsrx-10">
          <mxGeometry width="50" height="50" relative="1" as="geometry">
            <mxPoint x="140" y="360" as="sourcePoint" />
            <mxPoint x="190" y="310" as="targetPoint" />
          </mxGeometry>
        </mxCell>
        <mxCell id="3Mp1vTJyh1CXZGZxZsrx-18" value="&amp;lt;&amp;lt;расширить&amp;gt;&amp;gt;" style="edgeLabel;html=1;align=center;verticalAlign=middle;resizable=0;points=[];" vertex="1" connectable="0" parent="3Mp1vTJyh1CXZGZxZsrx-17">
          <mxGeometry x="-0.0204" y="-2" relative="1" as="geometry">
            <mxPoint as="offset" />
          </mxGeometry>
        </mxCell>
        <mxCell id="3Mp1vTJyh1CXZGZxZsrx-2" value="Екатерина Александровна" style="shape=umlActor;verticalLabelPosition=bottom;verticalAlign=top;html=1;outlineConnect=0;" vertex="1" parent="1">
          <mxGeometry x="150" y="270" width="30" height="60" as="geometry" />
        </mxCell>
        <mxCell id="3Mp1vTJyh1CXZGZxZsrx-11" value="" style="endArrow=none;html=1;rounded=0;entryX=1;entryY=0.3333333333333333;entryDx=0;entryDy=0;entryPerimeter=0;exitX=0;exitY=0.5;exitDx=0;exitDy=0;" edge="1" parent="1" source="3Mp1vTJyh1CXZGZxZsrx-7" target="3Mp1vTJyh1CXZGZxZsrx-2">
          <mxGeometry width="50" height="50" relative="1" as="geometry">
            <mxPoint x="390" y="460" as="sourcePoint" />
            <mxPoint x="440" y="410" as="targetPoint" />
          </mxGeometry>
        </mxCell>
        <mxCell id="3Mp1vTJyh1CXZGZxZsrx-13" value="" style="endArrow=none;html=1;rounded=0;entryX=1;entryY=0.3333333333333333;entryDx=0;entryDy=0;entryPerimeter=0;exitX=0;exitY=0.5;exitDx=0;exitDy=0;" edge="1" parent="1" source="3Mp1vTJyh1CXZGZxZsrx-8" target="3Mp1vTJyh1CXZGZxZsrx-2">
          <mxGeometry width="50" height="50" relative="1" as="geometry">
            <mxPoint x="390" y="460" as="sourcePoint" />
            <mxPoint x="440" y="410" as="targetPoint" />
          </mxGeometry>
        </mxCell>
        <mxCell id="3Mp1vTJyh1CXZGZxZsrx-14" value="" style="endArrow=none;html=1;rounded=0;entryX=1;entryY=0.3333333333333333;entryDx=0;entryDy=0;entryPerimeter=0;exitX=0;exitY=0.5;exitDx=0;exitDy=0;" edge="1" parent="1" source="3Mp1vTJyh1CXZGZxZsrx-10" target="3Mp1vTJyh1CXZGZxZsrx-2">
          <mxGeometry width="50" height="50" relative="1" as="geometry">
            <mxPoint x="390" y="460" as="sourcePoint" />
            <mxPoint x="440" y="410" as="targetPoint" />
          </mxGeometry>
        </mxCell>
      </root>
    </mxGraphModel>
  </diagram>
  <diagram id="CfjaNvyp8UAuuXBiAF7J" name="диаграмма последовательности">
    <mxGraphModel dx="1434" dy="844" grid="1" gridSize="10" guides="1" tooltips="1" connect="1" arrows="1" fold="1" page="1" pageScale="1" pageWidth="827" pageHeight="1169" math="0" shadow="0">
      <root>
        <mxCell id="0" />
        <mxCell id="1" parent="0" />
        <mxCell id="FeYf4y9oW9frVhTPe9nW-1" value="" style="shape=umlActor;verticalLabelPosition=bottom;verticalAlign=top;html=1;" vertex="1" parent="1">
          <mxGeometry x="150" y="180" width="30" height="60" as="geometry" />
        </mxCell>
        <mxCell id="FeYf4y9oW9frVhTPe9nW-3" value="Екатерина Александровна" style="html=1;whiteSpace=wrap;" vertex="1" parent="1">
          <mxGeometry x="110" y="250" width="110" height="50" as="geometry" />
        </mxCell>
        <mxCell id="FeYf4y9oW9frVhTPe9nW-5" value="Интерфейс" style="html=1;whiteSpace=wrap;" vertex="1" parent="1">
          <mxGeometry x="290" y="250" width="110" height="50" as="geometry" />
        </mxCell>
        <mxCell id="FeYf4y9oW9frVhTPe9nW-6" value="Код" style="html=1;whiteSpace=wrap;" vertex="1" parent="1">
          <mxGeometry x="470" y="250" width="110" height="50" as="geometry" />
        </mxCell>
        <mxCell id="FeYf4y9oW9frVhTPe9nW-7" value="Класс" style="html=1;whiteSpace=wrap;" vertex="1" parent="1">
          <mxGeometry x="650" y="250" width="110" height="50" as="geometry" />
        </mxCell>
        <mxCell id="FeYf4y9oW9frVhTPe9nW-11" value="" style="endArrow=none;dashed=1;html=1;rounded=0;entryX=0.5;entryY=1;entryDx=0;entryDy=0;" edge="1" parent="1" source="FeYf4y9oW9frVhTPe9nW-15" target="FeYf4y9oW9frVhTPe9nW-3">
          <mxGeometry width="50" height="50" relative="1" as="geometry">
            <mxPoint x="165" y="910" as="sourcePoint" />
            <mxPoint x="440" y="510" as="targetPoint" />
          </mxGeometry>
        </mxCell>
        <mxCell id="FeYf4y9oW9frVhTPe9nW-12" value="" style="endArrow=none;dashed=1;html=1;rounded=0;entryX=0.5;entryY=1;entryDx=0;entryDy=0;" edge="1" parent="1" target="FeYf4y9oW9frVhTPe9nW-5">
          <mxGeometry width="50" height="50" relative="1" as="geometry">
            <mxPoint x="345" y="780" as="sourcePoint" />
            <mxPoint x="440" y="510" as="targetPoint" />
          </mxGeometry>
        </mxCell>
        <mxCell id="FeYf4y9oW9frVhTPe9nW-13" value="" style="endArrow=none;dashed=1;html=1;rounded=0;entryX=0.5;entryY=1;entryDx=0;entryDy=0;" edge="1" parent="1" source="FeYf4y9oW9frVhTPe9nW-20" target="FeYf4y9oW9frVhTPe9nW-6">
          <mxGeometry width="50" height="50" relative="1" as="geometry">
            <mxPoint x="530" y="920" as="sourcePoint" />
            <mxPoint x="440" y="590" as="targetPoint" />
          </mxGeometry>
        </mxCell>
        <mxCell id="FeYf4y9oW9frVhTPe9nW-14" value="" style="endArrow=none;dashed=1;html=1;rounded=0;entryX=0.5;entryY=1;entryDx=0;entryDy=0;" edge="1" parent="1" source="FeYf4y9oW9frVhTPe9nW-24" target="FeYf4y9oW9frVhTPe9nW-7">
          <mxGeometry width="50" height="50" relative="1" as="geometry">
            <mxPoint x="705" y="920" as="sourcePoint" />
            <mxPoint x="440" y="590" as="targetPoint" />
          </mxGeometry>
        </mxCell>
        <mxCell id="FeYf4y9oW9frVhTPe9nW-16" value="" style="endArrow=none;dashed=1;html=1;rounded=0;entryX=0.5;entryY=1;entryDx=0;entryDy=0;" edge="1" parent="1" target="FeYf4y9oW9frVhTPe9nW-15">
          <mxGeometry width="50" height="50" relative="1" as="geometry">
            <mxPoint x="165" y="780" as="sourcePoint" />
            <mxPoint x="165" y="300" as="targetPoint" />
          </mxGeometry>
        </mxCell>
        <mxCell id="FeYf4y9oW9frVhTPe9nW-15" value="" style="html=1;points=[[0,0,0,0,5],[0,1,0,0,-5],[1,0,0,0,5],[1,1,0,0,-5]];perimeter=orthogonalPerimeter;outlineConnect=0;targetShapes=umlLifeline;portConstraint=eastwest;newEdgeStyle={&quot;curved&quot;:0,&quot;rounded&quot;:0};" vertex="1" parent="1">
          <mxGeometry x="160" y="360" width="10" height="370" as="geometry" />
        </mxCell>
        <mxCell id="FeYf4y9oW9frVhTPe9nW-17" value="" style="html=1;points=[[0,0,0,0,5],[0,1,0,0,-5],[1,0,0,0,5],[1,1,0,0,-5]];perimeter=orthogonalPerimeter;outlineConnect=0;targetShapes=umlLifeline;portConstraint=eastwest;newEdgeStyle={&quot;curved&quot;:0,&quot;rounded&quot;:0};" vertex="1" parent="1">
          <mxGeometry x="340" y="360" width="10" height="370" as="geometry" />
        </mxCell>
        <mxCell id="FeYf4y9oW9frVhTPe9nW-18" value="" style="endArrow=classic;html=1;rounded=0;entryX=0;entryY=0;entryDx=0;entryDy=5;entryPerimeter=0;exitX=1;exitY=0;exitDx=0;exitDy=5;exitPerimeter=0;" edge="1" parent="1" source="FeYf4y9oW9frVhTPe9nW-15" target="FeYf4y9oW9frVhTPe9nW-17">
          <mxGeometry width="50" height="50" relative="1" as="geometry">
            <mxPoint x="220" y="400" as="sourcePoint" />
            <mxPoint x="390" y="580" as="targetPoint" />
          </mxGeometry>
        </mxCell>
        <mxCell id="FeYf4y9oW9frVhTPe9nW-19" value="тык тык последовательность" style="edgeLabel;html=1;align=center;verticalAlign=middle;resizable=0;points=[];" vertex="1" connectable="0" parent="FeYf4y9oW9frVhTPe9nW-18">
          <mxGeometry y="1" relative="1" as="geometry">
            <mxPoint as="offset" />
          </mxGeometry>
        </mxCell>
        <mxCell id="FeYf4y9oW9frVhTPe9nW-21" value="" style="endArrow=none;dashed=1;html=1;rounded=0;entryX=0.5;entryY=1;entryDx=0;entryDy=0;" edge="1" parent="1" target="FeYf4y9oW9frVhTPe9nW-20">
          <mxGeometry width="50" height="50" relative="1" as="geometry">
            <mxPoint x="525" y="780" as="sourcePoint" />
            <mxPoint x="525" y="300" as="targetPoint" />
          </mxGeometry>
        </mxCell>
        <mxCell id="FeYf4y9oW9frVhTPe9nW-20" value="" style="html=1;points=[[0,0,0,0,5],[0,1,0,0,-5],[1,0,0,0,5],[1,1,0,0,-5]];perimeter=orthogonalPerimeter;outlineConnect=0;targetShapes=umlLifeline;portConstraint=eastwest;newEdgeStyle={&quot;curved&quot;:0,&quot;rounded&quot;:0};" vertex="1" parent="1">
          <mxGeometry x="520" y="400" width="10" height="230" as="geometry" />
        </mxCell>
        <mxCell id="FeYf4y9oW9frVhTPe9nW-22" value="" style="endArrow=classic;html=1;rounded=0;entryX=0;entryY=0;entryDx=0;entryDy=5;entryPerimeter=0;" edge="1" parent="1" source="FeYf4y9oW9frVhTPe9nW-17" target="FeYf4y9oW9frVhTPe9nW-20">
          <mxGeometry width="50" height="50" relative="1" as="geometry">
            <mxPoint x="340" y="630" as="sourcePoint" />
            <mxPoint x="390" y="580" as="targetPoint" />
          </mxGeometry>
        </mxCell>
        <mxCell id="FeYf4y9oW9frVhTPe9nW-23" value="отправка данных в метод" style="edgeLabel;html=1;align=center;verticalAlign=middle;resizable=0;points=[];" vertex="1" connectable="0" parent="FeYf4y9oW9frVhTPe9nW-22">
          <mxGeometry x="-0.1882" y="-2" relative="1" as="geometry">
            <mxPoint x="11" y="-7" as="offset" />
          </mxGeometry>
        </mxCell>
        <mxCell id="FeYf4y9oW9frVhTPe9nW-25" value="" style="endArrow=none;dashed=1;html=1;rounded=0;entryX=0.5;entryY=1;entryDx=0;entryDy=0;" edge="1" parent="1" target="FeYf4y9oW9frVhTPe9nW-24">
          <mxGeometry width="50" height="50" relative="1" as="geometry">
            <mxPoint x="705" y="780" as="sourcePoint" />
            <mxPoint x="705" y="300" as="targetPoint" />
          </mxGeometry>
        </mxCell>
        <mxCell id="FeYf4y9oW9frVhTPe9nW-24" value="" style="html=1;points=[[0,0,0,0,5],[0,1,0,0,-5],[1,0,0,0,5],[1,1,0,0,-5]];perimeter=orthogonalPerimeter;outlineConnect=0;targetShapes=umlLifeline;portConstraint=eastwest;newEdgeStyle={&quot;curved&quot;:0,&quot;rounded&quot;:0};" vertex="1" parent="1">
          <mxGeometry x="700" y="440" width="10" height="110" as="geometry" />
        </mxCell>
        <mxCell id="FeYf4y9oW9frVhTPe9nW-26" value="" style="endArrow=classic;html=1;rounded=0;entryX=0;entryY=0;entryDx=0;entryDy=5;entryPerimeter=0;" edge="1" parent="1" source="FeYf4y9oW9frVhTPe9nW-20" target="FeYf4y9oW9frVhTPe9nW-24">
          <mxGeometry width="50" height="50" relative="1" as="geometry">
            <mxPoint x="340" y="630" as="sourcePoint" />
            <mxPoint x="390" y="580" as="targetPoint" />
          </mxGeometry>
        </mxCell>
        <mxCell id="FeYf4y9oW9frVhTPe9nW-27" value="отправка данных в библиотеку" style="edgeLabel;html=1;align=center;verticalAlign=middle;resizable=0;points=[];" vertex="1" connectable="0" parent="FeYf4y9oW9frVhTPe9nW-26">
          <mxGeometry x="-0.0706" y="3" relative="1" as="geometry">
            <mxPoint as="offset" />
          </mxGeometry>
        </mxCell>
        <mxCell id="FeYf4y9oW9frVhTPe9nW-28" value="" style="endArrow=open;html=1;rounded=0;dashed=1;startArrow=none;startFill=0;endFill=0;" edge="1" parent="1">
          <mxGeometry width="50" height="50" relative="1" as="geometry">
            <mxPoint x="700" y="550" as="sourcePoint" />
            <mxPoint x="530" y="550" as="targetPoint" />
          </mxGeometry>
        </mxCell>
        <mxCell id="FeYf4y9oW9frVhTPe9nW-29" value="это геом. последовательность" style="edgeLabel;html=1;align=center;verticalAlign=middle;resizable=0;points=[];" vertex="1" connectable="0" parent="FeYf4y9oW9frVhTPe9nW-28">
          <mxGeometry x="0.0353" y="2" relative="1" as="geometry">
            <mxPoint x="8" y="-2" as="offset" />
          </mxGeometry>
        </mxCell>
        <mxCell id="FeYf4y9oW9frVhTPe9nW-30" value="" style="endArrow=open;html=1;rounded=0;dashed=1;endFill=0;" edge="1" parent="1">
          <mxGeometry width="50" height="50" relative="1" as="geometry">
            <mxPoint x="520" y="630" as="sourcePoint" />
            <mxPoint x="350" y="630" as="targetPoint" />
          </mxGeometry>
        </mxCell>
        <mxCell id="FeYf4y9oW9frVhTPe9nW-31" value="кайф, рисуем график" style="edgeLabel;html=1;align=center;verticalAlign=middle;resizable=0;points=[];" vertex="1" connectable="0" parent="FeYf4y9oW9frVhTPe9nW-30">
          <mxGeometry x="0.1047" y="-1" relative="1" as="geometry">
            <mxPoint as="offset" />
          </mxGeometry>
        </mxCell>
        <mxCell id="FeYf4y9oW9frVhTPe9nW-32" value="" style="endArrow=open;html=1;rounded=0;exitX=0;exitY=1;exitDx=0;exitDy=-5;exitPerimeter=0;entryX=1;entryY=1;entryDx=0;entryDy=-5;entryPerimeter=0;endFill=0;dashed=1;" edge="1" parent="1" source="FeYf4y9oW9frVhTPe9nW-17" target="FeYf4y9oW9frVhTPe9nW-15">
          <mxGeometry width="50" height="50" relative="1" as="geometry">
            <mxPoint x="340" y="630" as="sourcePoint" />
            <mxPoint x="390" y="580" as="targetPoint" />
          </mxGeometry>
        </mxCell>
        <mxCell id="FeYf4y9oW9frVhTPe9nW-33" value="держи график" style="edgeLabel;html=1;align=center;verticalAlign=middle;resizable=0;points=[];" vertex="1" connectable="0" parent="FeYf4y9oW9frVhTPe9nW-32">
          <mxGeometry y="-3" relative="1" as="geometry">
            <mxPoint as="offset" />
          </mxGeometry>
        </mxCell>
      </root>
    </mxGraphModel>
  </diagram>
  <diagram id="Nwcs6TJhNUyOW7DZic-A" name="диаграмма деятельности">
    <mxGraphModel dx="1195" dy="703" grid="1" gridSize="10" guides="1" tooltips="1" connect="1" arrows="1" fold="1" page="1" pageScale="1" pageWidth="827" pageHeight="1169" math="0" shadow="0">
      <root>
        <mxCell id="0" />
        <mxCell id="1" parent="0" />
        <mxCell id="GJkkPXkpH41s0OClLmpY-3" value="&amp;nbsp; &amp;nbsp; &amp;nbsp; &amp;nbsp; Практика" style="rounded=0;whiteSpace=wrap;html=1;align=left;fillColor=#e1d5e7;strokeColor=#9673a6;" vertex="1" parent="1">
          <mxGeometry x="120" y="270" width="520" height="40" as="geometry" />
        </mxCell>
        <mxCell id="GJkkPXkpH41s0OClLmpY-4" value="" style="rounded=0;whiteSpace=wrap;html=1;fillColor=#e1d5e7;strokeColor=#9673a6;" vertex="1" parent="1">
          <mxGeometry x="120" y="310" width="20" height="600" as="geometry" />
        </mxCell>
        <mxCell id="GJkkPXkpH41s0OClLmpY-5" value="Екатерина Александровна" style="rounded=0;whiteSpace=wrap;html=1;fillColor=#e1d5e7;strokeColor=#9673a6;" vertex="1" parent="1">
          <mxGeometry x="140" y="310" width="250" height="60" as="geometry" />
        </mxCell>
        <mxCell id="GJkkPXkpH41s0OClLmpY-6" value="Программа" style="rounded=0;whiteSpace=wrap;html=1;fillColor=#e1d5e7;strokeColor=#9673a6;" vertex="1" parent="1">
          <mxGeometry x="390" y="310" width="250" height="60" as="geometry" />
        </mxCell>
        <mxCell id="GJkkPXkpH41s0OClLmpY-8" value="" style="endArrow=none;html=1;rounded=0;entryX=0;entryY=1;entryDx=0;entryDy=0;fillColor=#e1d5e7;strokeColor=#9673a6;" edge="1" parent="1" target="GJkkPXkpH41s0OClLmpY-6">
          <mxGeometry width="50" height="50" relative="1" as="geometry">
            <mxPoint x="390" y="920" as="sourcePoint" />
            <mxPoint x="440" y="570" as="targetPoint" />
          </mxGeometry>
        </mxCell>
        <mxCell id="GJkkPXkpH41s0OClLmpY-9" value="" style="ellipse;whiteSpace=wrap;html=1;aspect=fixed;" vertex="1" parent="1">
          <mxGeometry x="220" y="390" width="60" height="60" as="geometry" />
        </mxCell>
        <mxCell id="GJkkPXkpH41s0OClLmpY-10" value="Выбор последовательности" style="rounded=1;whiteSpace=wrap;html=1;" vertex="1" parent="1">
          <mxGeometry x="190" y="480" width="117.5" height="60" as="geometry" />
        </mxCell>
        <mxCell id="GJkkPXkpH41s0OClLmpY-11" value="" style="endArrow=classic;html=1;rounded=0;exitX=0.5;exitY=1;exitDx=0;exitDy=0;entryX=0.5;entryY=0;entryDx=0;entryDy=0;" edge="1" parent="1" source="GJkkPXkpH41s0OClLmpY-9" target="GJkkPXkpH41s0OClLmpY-10">
          <mxGeometry width="50" height="50" relative="1" as="geometry">
            <mxPoint x="310" y="700" as="sourcePoint" />
            <mxPoint x="360" y="650" as="targetPoint" />
          </mxGeometry>
        </mxCell>
        <mxCell id="GJkkPXkpH41s0OClLmpY-13" value="Обработка последовательности" style="rounded=1;whiteSpace=wrap;html=1;" vertex="1" parent="1">
          <mxGeometry x="450" y="540" width="117.5" height="60" as="geometry" />
        </mxCell>
        <mxCell id="GJkkPXkpH41s0OClLmpY-14" value="" style="endArrow=classic;html=1;rounded=0;exitX=1;exitY=0.5;exitDx=0;exitDy=0;entryX=0.5;entryY=0;entryDx=0;entryDy=0;" edge="1" parent="1" source="GJkkPXkpH41s0OClLmpY-10" target="GJkkPXkpH41s0OClLmpY-13">
          <mxGeometry width="50" height="50" relative="1" as="geometry">
            <mxPoint x="320" y="640" as="sourcePoint" />
            <mxPoint x="370" y="590" as="targetPoint" />
            <Array as="points">
              <mxPoint x="510" y="510" />
            </Array>
          </mxGeometry>
        </mxCell>
        <mxCell id="GJkkPXkpH41s0OClLmpY-17" value="Вывод графика на форму" style="rounded=1;whiteSpace=wrap;html=1;" vertex="1" parent="1">
          <mxGeometry x="450" y="640" width="117.5" height="60" as="geometry" />
        </mxCell>
        <mxCell id="GJkkPXkpH41s0OClLmpY-18" value="" style="endArrow=classic;html=1;rounded=0;exitX=0.5;exitY=1;exitDx=0;exitDy=0;entryX=0.5;entryY=0;entryDx=0;entryDy=0;" edge="1" parent="1" source="GJkkPXkpH41s0OClLmpY-13" target="GJkkPXkpH41s0OClLmpY-17">
          <mxGeometry width="50" height="50" relative="1" as="geometry">
            <mxPoint x="380" y="670" as="sourcePoint" />
            <mxPoint x="430" y="620" as="targetPoint" />
          </mxGeometry>
        </mxCell>
        <mxCell id="GJkkPXkpH41s0OClLmpY-19" value="" style="group" vertex="1" connectable="0" parent="1">
          <mxGeometry x="410" y="450" width="80" height="60" as="geometry" />
        </mxCell>
        <mxCell id="GJkkPXkpH41s0OClLmpY-15" value="" style="endArrow=classic;html=1;rounded=0;dashed=1;" edge="1" parent="GJkkPXkpH41s0OClLmpY-19">
          <mxGeometry width="50" height="50" relative="1" as="geometry">
            <mxPoint x="50" y="30" as="sourcePoint" />
            <mxPoint y="60" as="targetPoint" />
          </mxGeometry>
        </mxCell>
        <mxCell id="GJkkPXkpH41s0OClLmpY-16" value="Ввод последовательности" style="text;html=1;align=center;verticalAlign=middle;whiteSpace=wrap;rounded=0;" vertex="1" parent="GJkkPXkpH41s0OClLmpY-19">
          <mxGeometry x="20" width="60" height="30" as="geometry" />
        </mxCell>
        <mxCell id="GJkkPXkpH41s0OClLmpY-23" value="" style="endArrow=classic;html=1;rounded=0;dashed=1;" edge="1" parent="1">
          <mxGeometry width="50" height="50" relative="1" as="geometry">
            <mxPoint x="560" y="620" as="sourcePoint" />
            <mxPoint x="510" y="620" as="targetPoint" />
          </mxGeometry>
        </mxCell>
        <mxCell id="GJkkPXkpH41s0OClLmpY-24" value="Формирование графика" style="text;html=1;align=center;verticalAlign=middle;whiteSpace=wrap;rounded=0;" vertex="1" parent="1">
          <mxGeometry x="567.5" y="610" width="60" height="30" as="geometry" />
        </mxCell>
        <mxCell id="GJkkPXkpH41s0OClLmpY-25" value="Просмотр красивенького графика" style="rounded=1;whiteSpace=wrap;html=1;" vertex="1" parent="1">
          <mxGeometry x="191.25" y="700" width="117.5" height="60" as="geometry" />
        </mxCell>
        <mxCell id="GJkkPXkpH41s0OClLmpY-26" value="" style="endArrow=classic;html=1;rounded=0;exitX=0;exitY=0.5;exitDx=0;exitDy=0;entryX=0.5;entryY=0;entryDx=0;entryDy=0;" edge="1" parent="1" source="GJkkPXkpH41s0OClLmpY-17" target="GJkkPXkpH41s0OClLmpY-25">
          <mxGeometry width="50" height="50" relative="1" as="geometry">
            <mxPoint x="380" y="730" as="sourcePoint" />
            <mxPoint x="430" y="680" as="targetPoint" />
            <Array as="points">
              <mxPoint x="250" y="670" />
            </Array>
          </mxGeometry>
        </mxCell>
        <mxCell id="GJkkPXkpH41s0OClLmpY-27" value="" style="endArrow=classic;html=1;rounded=0;exitX=1;exitY=0.5;exitDx=0;exitDy=0;entryX=0.5;entryY=0;entryDx=0;entryDy=0;dashed=1;" edge="1" parent="1" source="GJkkPXkpH41s0OClLmpY-25" target="GJkkPXkpH41s0OClLmpY-28">
          <mxGeometry width="50" height="50" relative="1" as="geometry">
            <mxPoint x="380" y="730" as="sourcePoint" />
            <mxPoint x="250" y="800" as="targetPoint" />
            <Array as="points">
              <mxPoint x="510" y="730" />
            </Array>
          </mxGeometry>
        </mxCell>
        <mxCell id="GJkkPXkpH41s0OClLmpY-32" value="Закрытие программы" style="edgeLabel;html=1;align=center;verticalAlign=middle;resizable=0;points=[];" vertex="1" connectable="0" parent="GJkkPXkpH41s0OClLmpY-27">
          <mxGeometry x="-0.2616" y="1" relative="1" as="geometry">
            <mxPoint as="offset" />
          </mxGeometry>
        </mxCell>
        <mxCell id="GJkkPXkpH41s0OClLmpY-28" value="Самоуничтожение (выключение)" style="rounded=1;whiteSpace=wrap;html=1;" vertex="1" parent="1">
          <mxGeometry x="450" y="760" width="117.5" height="60" as="geometry" />
        </mxCell>
        <mxCell id="GJkkPXkpH41s0OClLmpY-29" value="" style="endArrow=classic;html=1;rounded=0;exitX=0.5;exitY=1;exitDx=0;exitDy=0;" edge="1" parent="1" source="GJkkPXkpH41s0OClLmpY-28">
          <mxGeometry width="50" height="50" relative="1" as="geometry">
            <mxPoint x="380" y="790" as="sourcePoint" />
            <mxPoint x="509" y="850" as="targetPoint" />
          </mxGeometry>
        </mxCell>
        <mxCell id="GJkkPXkpH41s0OClLmpY-30" value="" style="ellipse;whiteSpace=wrap;html=1;aspect=fixed;" vertex="1" parent="1">
          <mxGeometry x="478.75" y="850" width="60" height="60" as="geometry" />
        </mxCell>
        <mxCell id="GJkkPXkpH41s0OClLmpY-31" value="" style="ellipse;whiteSpace=wrap;html=1;aspect=fixed;" vertex="1" parent="1">
          <mxGeometry x="488.75" y="860" width="40" height="40" as="geometry" />
        </mxCell>
        <mxCell id="GJkkPXkpH41s0OClLmpY-33" value="" style="endArrow=none;html=1;rounded=0;entryX=1;entryY=1;entryDx=0;entryDy=0;fillColor=#e1d5e7;strokeColor=#9673a6;" edge="1" parent="1" target="GJkkPXkpH41s0OClLmpY-6">
          <mxGeometry width="50" height="50" relative="1" as="geometry">
            <mxPoint x="640" y="920" as="sourcePoint" />
            <mxPoint x="430" y="520" as="targetPoint" />
          </mxGeometry>
        </mxCell>
      </root>
    </mxGraphModel>
  </diagram>
  <diagram id="eNh9nNELr425VlvmPYsO" name="диаграмма состояний">
    <mxGraphModel dx="1687" dy="993" grid="1" gridSize="10" guides="1" tooltips="1" connect="1" arrows="1" fold="1" page="1" pageScale="1" pageWidth="827" pageHeight="1169" math="0" shadow="0">
      <root>
        <mxCell id="0" />
        <mxCell id="1" parent="0" />
        <mxCell id="tT4vG_9dovxFYVEyESEs-26" value="" style="rounded=1;whiteSpace=wrap;html=1;" vertex="1" parent="1">
          <mxGeometry x="90" y="150" width="690" height="610" as="geometry" />
        </mxCell>
        <mxCell id="tT4vG_9dovxFYVEyESEs-10" value="" style="ellipse;whiteSpace=wrap;html=1;aspect=fixed;fillColor=#000000;" vertex="1" parent="1">
          <mxGeometry x="400" y="220" width="70" height="70" as="geometry" />
        </mxCell>
        <mxCell id="tT4vG_9dovxFYVEyESEs-27" value="" style="group" vertex="1" connectable="0" parent="1">
          <mxGeometry x="400" y="660" width="70" height="70" as="geometry" />
        </mxCell>
        <mxCell id="tT4vG_9dovxFYVEyESEs-23" value="" style="ellipse;whiteSpace=wrap;html=1;aspect=fixed;" vertex="1" parent="tT4vG_9dovxFYVEyESEs-27">
          <mxGeometry width="70" height="70" as="geometry" />
        </mxCell>
        <mxCell id="tT4vG_9dovxFYVEyESEs-24" value="" style="ellipse;whiteSpace=wrap;html=1;aspect=fixed;fillColor=#000000;" vertex="1" parent="tT4vG_9dovxFYVEyESEs-27">
          <mxGeometry x="6.25" y="6.25" width="57.5" height="57.5" as="geometry" />
        </mxCell>
        <mxCell id="tT4vG_9dovxFYVEyESEs-29" value="" style="endArrow=none;html=1;rounded=0;exitX=0;exitY=0.5;exitDx=0;exitDy=0;entryX=1;entryY=0.5;entryDx=0;entryDy=0;" edge="1" parent="1">
          <mxGeometry width="50" height="50" relative="1" as="geometry">
            <mxPoint x="342.5" y="595" as="sourcePoint" />
            <mxPoint x="527.5" y="595" as="targetPoint" />
          </mxGeometry>
        </mxCell>
        <mxCell id="tT4vG_9dovxFYVEyESEs-30" value="" style="endArrow=classic;html=1;rounded=0;exitX=0.5;exitY=1;exitDx=0;exitDy=0;entryX=0.5;entryY=0;entryDx=0;entryDy=0;" edge="1" parent="1" target="tT4vG_9dovxFYVEyESEs-23">
          <mxGeometry width="50" height="50" relative="1" as="geometry">
            <mxPoint x="435" y="630" as="sourcePoint" />
            <mxPoint x="440" y="510" as="targetPoint" />
          </mxGeometry>
        </mxCell>
        <mxCell id="tT4vG_9dovxFYVEyESEs-31" value="" style="endArrow=classic;html=1;rounded=0;exitX=0.5;exitY=1;exitDx=0;exitDy=0;entryX=0;entryY=0.5;entryDx=0;entryDy=0;" edge="1" parent="1" source="KgdwoGKOZ_IC76JozMO2-8">
          <mxGeometry width="50" height="50" relative="1" as="geometry">
            <mxPoint x="232.5" y="525" as="sourcePoint" />
            <mxPoint x="342.5" y="595" as="targetPoint" />
            <Array as="points">
              <mxPoint x="245" y="595" />
            </Array>
          </mxGeometry>
        </mxCell>
        <mxCell id="tT4vG_9dovxFYVEyESEs-32" value="" style="endArrow=classic;html=1;rounded=0;exitX=0.5;exitY=1;exitDx=0;exitDy=0;entryX=1;entryY=0.5;entryDx=0;entryDy=0;" edge="1" parent="1">
          <mxGeometry width="50" height="50" relative="1" as="geometry">
            <mxPoint x="652.5" y="525" as="sourcePoint" />
            <mxPoint x="527.5" y="595" as="targetPoint" />
            <Array as="points">
              <mxPoint x="653" y="595" />
            </Array>
          </mxGeometry>
        </mxCell>
        <mxCell id="tT4vG_9dovxFYVEyESEs-33" value="" style="endArrow=none;html=1;rounded=0;" edge="1" parent="1">
          <mxGeometry width="50" height="50" relative="1" as="geometry">
            <mxPoint x="435" y="440" as="sourcePoint" />
            <mxPoint x="435" y="520" as="targetPoint" />
          </mxGeometry>
        </mxCell>
        <mxCell id="tT4vG_9dovxFYVEyESEs-34" value="" style="endArrow=classic;html=1;rounded=0;exitX=0.5;exitY=1;exitDx=0;exitDy=0;entryX=0.5;entryY=0;entryDx=0;entryDy=0;" edge="1" parent="1" target="KgdwoGKOZ_IC76JozMO2-7">
          <mxGeometry width="50" height="50" relative="1" as="geometry">
            <mxPoint x="435" y="390" as="sourcePoint" />
            <mxPoint x="232.5" y="455" as="targetPoint" />
            <Array as="points">
              <mxPoint x="435" y="420" />
              <mxPoint x="245" y="420" />
            </Array>
          </mxGeometry>
        </mxCell>
        <mxCell id="tT4vG_9dovxFYVEyESEs-35" value="" style="endArrow=classic;html=1;rounded=0;entryX=0.5;entryY=0;entryDx=0;entryDy=0;" edge="1" parent="1" target="KgdwoGKOZ_IC76JozMO2-10">
          <mxGeometry width="50" height="50" relative="1" as="geometry">
            <mxPoint x="430" y="420" as="sourcePoint" />
            <mxPoint x="652.5" y="455" as="targetPoint" />
            <Array as="points">
              <mxPoint x="655" y="420" />
            </Array>
          </mxGeometry>
        </mxCell>
        <mxCell id="tT4vG_9dovxFYVEyESEs-36" value="" style="endArrow=classic;html=1;rounded=0;exitX=0.5;exitY=1;exitDx=0;exitDy=0;entryX=0.5;entryY=0;entryDx=0;entryDy=0;" edge="1" parent="1" source="tT4vG_9dovxFYVEyESEs-10">
          <mxGeometry width="50" height="50" relative="1" as="geometry">
            <mxPoint x="230" y="380" as="sourcePoint" />
            <mxPoint x="435" y="320" as="targetPoint" />
          </mxGeometry>
        </mxCell>
        <mxCell id="tT4vG_9dovxFYVEyESEs-37" value="" style="endArrow=none;html=1;rounded=0;exitX=0.988;exitY=0.089;exitDx=0;exitDy=0;exitPerimeter=0;" edge="1" parent="1" source="tT4vG_9dovxFYVEyESEs-26">
          <mxGeometry width="50" height="50" relative="1" as="geometry">
            <mxPoint x="230" y="480" as="sourcePoint" />
            <mxPoint x="100" y="204" as="targetPoint" />
          </mxGeometry>
        </mxCell>
        <mxCell id="tT4vG_9dovxFYVEyESEs-38" value="Практика" style="text;html=1;align=center;verticalAlign=middle;whiteSpace=wrap;rounded=0;fontSize=16;" vertex="1" parent="1">
          <mxGeometry x="400" y="160" width="60" height="30" as="geometry" />
        </mxCell>
        <mxCell id="KgdwoGKOZ_IC76JozMO2-4" value="" style="group" vertex="1" connectable="0" parent="1">
          <mxGeometry x="340" y="560" width="190" height="70" as="geometry" />
        </mxCell>
        <mxCell id="KgdwoGKOZ_IC76JozMO2-1" value="Меняем интерфейс (или нет..)" style="rounded=1;whiteSpace=wrap;html=1;fillColor=#000000;fontColor=#FFFFFF;" vertex="1" parent="KgdwoGKOZ_IC76JozMO2-4">
          <mxGeometry width="190" height="40" as="geometry" />
        </mxCell>
        <mxCell id="KgdwoGKOZ_IC76JozMO2-3" value="" style="rounded=1;whiteSpace=wrap;html=1;" vertex="1" parent="KgdwoGKOZ_IC76JozMO2-4">
          <mxGeometry y="30" width="190" height="40" as="geometry" />
        </mxCell>
        <mxCell id="KgdwoGKOZ_IC76JozMO2-6" value="" style="group" vertex="1" connectable="0" parent="1">
          <mxGeometry x="150" y="450" width="190" height="70" as="geometry" />
        </mxCell>
        <mxCell id="KgdwoGKOZ_IC76JozMO2-7" value="Переходим&amp;nbsp; методам" style="rounded=1;whiteSpace=wrap;html=1;fillColor=#000000;fontColor=#FFFFFF;" vertex="1" parent="KgdwoGKOZ_IC76JozMO2-6">
          <mxGeometry width="190" height="40" as="geometry" />
        </mxCell>
        <mxCell id="KgdwoGKOZ_IC76JozMO2-8" value="Рисуем графичек" style="rounded=1;whiteSpace=wrap;html=1;" vertex="1" parent="KgdwoGKOZ_IC76JozMO2-6">
          <mxGeometry y="30" width="190" height="40" as="geometry" />
        </mxCell>
        <mxCell id="KgdwoGKOZ_IC76JozMO2-9" value="" style="group" vertex="1" connectable="0" parent="1">
          <mxGeometry x="560" y="460" width="190" height="70" as="geometry" />
        </mxCell>
        <mxCell id="KgdwoGKOZ_IC76JozMO2-10" value="Переходим к методам" style="rounded=1;whiteSpace=wrap;html=1;fillColor=#000000;fontColor=#FFFFFF;" vertex="1" parent="KgdwoGKOZ_IC76JozMO2-9">
          <mxGeometry width="190" height="40" as="geometry" />
        </mxCell>
        <mxCell id="KgdwoGKOZ_IC76JozMO2-11" value="Не рисуем графичек(" style="rounded=1;whiteSpace=wrap;html=1;" vertex="1" parent="KgdwoGKOZ_IC76JozMO2-9">
          <mxGeometry y="30" width="190" height="40" as="geometry" />
        </mxCell>
        <mxCell id="KgdwoGKOZ_IC76JozMO2-12" value="" style="group" vertex="1" connectable="0" parent="1">
          <mxGeometry x="340" y="320" width="190" height="70" as="geometry" />
        </mxCell>
        <mxCell id="KgdwoGKOZ_IC76JozMO2-13" value="Ввести последовательность" style="rounded=1;whiteSpace=wrap;html=1;fillColor=#000000;fontColor=#FFFFFF;" vertex="1" parent="KgdwoGKOZ_IC76JozMO2-12">
          <mxGeometry width="190" height="40" as="geometry" />
        </mxCell>
        <mxCell id="KgdwoGKOZ_IC76JozMO2-14" value="" style="rounded=1;whiteSpace=wrap;html=1;" vertex="1" parent="KgdwoGKOZ_IC76JozMO2-12">
          <mxGeometry y="30" width="190" height="40" as="geometry" />
        </mxCell>
        <mxCell id="CkguSKj96qBCEGV-iLgd-1" value="" style="shape=or;whiteSpace=wrap;html=1;rotation=-90;fillColor=#000000;" vertex="1" parent="1">
          <mxGeometry x="398.13" y="-171.87" width="81.25" height="672.5" as="geometry" />
        </mxCell>
        <mxCell id="CkguSKj96qBCEGV-iLgd-2" value="Практика" style="text;html=1;align=center;verticalAlign=middle;whiteSpace=wrap;rounded=0;fontColor=#FFFFFF;fontSize=20;" vertex="1" parent="1">
          <mxGeometry x="410" y="150" width="60" height="30" as="geometry" />
        </mxCell>
      </root>
    </mxGraphModel>
  </diagram>
  <diagram id="CZhCFr7M_m6QH-YESJuA" name="диаграмма классов">
    <mxGraphModel dx="1434" dy="844" grid="1" gridSize="10" guides="1" tooltips="1" connect="1" arrows="1" fold="1" page="1" pageScale="1" pageWidth="827" pageHeight="1169" math="0" shadow="0">
      <root>
        <mxCell id="0" />
        <mxCell id="1" parent="0" />
        <mxCell id="Zv1G3qLZkO9gbC-gxjes-1" value="&amp;nbsp; &amp;nbsp; Прогрессия" style="swimlane;fontStyle=0;childLayout=stackLayout;horizontal=1;startSize=26;fillColor=#dae8fc;horizontalStack=0;resizeParent=1;resizeParentMax=0;resizeLast=0;collapsible=1;marginBottom=0;whiteSpace=wrap;html=1;strokeColor=#6c8ebf;align=left;" parent="1" vertex="1">
          <mxGeometry x="80" y="160" width="190" height="78" as="geometry" />
        </mxCell>
        <mxCell id="Zv1G3qLZkO9gbC-gxjes-2" value="- numbers: int[]" style="text;strokeColor=none;fillColor=none;align=left;verticalAlign=top;spacingLeft=4;spacingRight=4;overflow=hidden;rotatable=0;points=[[0,0.5],[1,0.5]];portConstraint=eastwest;whiteSpace=wrap;html=1;" parent="Zv1G3qLZkO9gbC-gxjes-1" vertex="1">
          <mxGeometry y="26" width="190" height="26" as="geometry" />
        </mxCell>
        <mxCell id="Zv1G3qLZkO9gbC-gxjes-3" value="+ answer: bool" style="text;strokeColor=none;fillColor=none;align=left;verticalAlign=top;spacingLeft=4;spacingRight=4;overflow=hidden;rotatable=0;points=[[0,0.5],[1,0.5]];portConstraint=eastwest;whiteSpace=wrap;html=1;" parent="Zv1G3qLZkO9gbC-gxjes-1" vertex="1">
          <mxGeometry y="52" width="190" height="26" as="geometry" />
        </mxCell>
        <mxCell id="Zv1G3qLZkO9gbC-gxjes-5" value="" style="endArrow=none;dashed=1;html=1;rounded=0;exitX=-0.001;exitY=1.011;exitDx=0;exitDy=0;exitPerimeter=0;entryX=0.999;entryY=0.011;entryDx=0;entryDy=0;entryPerimeter=0;" parent="Zv1G3qLZkO9gbC-gxjes-1" source="Zv1G3qLZkO9gbC-gxjes-2" target="Zv1G3qLZkO9gbC-gxjes-3" edge="1">
          <mxGeometry width="50" height="50" relative="1" as="geometry">
            <mxPoint x="300" y="300" as="sourcePoint" />
            <mxPoint x="350" y="250" as="targetPoint" />
          </mxGeometry>
        </mxCell>
        <mxCell id="Zv1G3qLZkO9gbC-gxjes-6" value="&amp;nbsp; &amp;nbsp; Графичек" style="swimlane;fontStyle=0;childLayout=stackLayout;horizontal=1;startSize=26;fillColor=#dae8fc;horizontalStack=0;resizeParent=1;resizeParentMax=0;resizeLast=0;collapsible=1;marginBottom=0;whiteSpace=wrap;html=1;strokeColor=#6c8ebf;align=left;" parent="1" vertex="1">
          <mxGeometry x="380" y="160" width="190" height="78" as="geometry" />
        </mxCell>
        <mxCell id="Zv1G3qLZkO9gbC-gxjes-7" value="- numbers: int[]" style="text;strokeColor=none;fillColor=none;align=left;verticalAlign=top;spacingLeft=4;spacingRight=4;overflow=hidden;rotatable=0;points=[[0,0.5],[1,0.5]];portConstraint=eastwest;whiteSpace=wrap;html=1;" parent="Zv1G3qLZkO9gbC-gxjes-6" vertex="1">
          <mxGeometry y="26" width="190" height="26" as="geometry" />
        </mxCell>
        <mxCell id="Zv1G3qLZkO9gbC-gxjes-10" value="+ graph: Canvas" style="text;strokeColor=none;fillColor=none;align=left;verticalAlign=top;spacingLeft=4;spacingRight=4;overflow=hidden;rotatable=0;points=[[0,0.5],[1,0.5]];portConstraint=eastwest;whiteSpace=wrap;html=1;" parent="Zv1G3qLZkO9gbC-gxjes-6" vertex="1">
          <mxGeometry y="52" width="190" height="26" as="geometry" />
        </mxCell>
        <mxCell id="Zv1G3qLZkO9gbC-gxjes-11" value="&amp;nbsp; &amp;nbsp; &amp;lt;&amp;lt;Интерфейс: практика&amp;gt;&amp;gt;&lt;div&gt;tbTextChanged&lt;/div&gt;" style="swimlane;fontStyle=0;childLayout=stackLayout;horizontal=1;startSize=26;fillColor=#dae8fc;horizontalStack=0;resizeParent=1;resizeParentMax=0;resizeLast=0;collapsible=1;marginBottom=0;whiteSpace=wrap;html=1;strokeColor=#6c8ebf;align=left;" parent="1" vertex="1">
          <mxGeometry x="220" y="280" width="180" height="104" as="geometry" />
        </mxCell>
        <mxCell id="Zv1G3qLZkO9gbC-gxjes-12" value="- sender: object" style="text;strokeColor=none;fillColor=none;align=left;verticalAlign=top;spacingLeft=4;spacingRight=4;overflow=hidden;rotatable=0;points=[[0,0.5],[1,0.5]];portConstraint=eastwest;whiteSpace=wrap;html=1;" parent="Zv1G3qLZkO9gbC-gxjes-11" vertex="1">
          <mxGeometry y="26" width="180" height="26" as="geometry" />
        </mxCell>
        <mxCell id="Zv1G3qLZkO9gbC-gxjes-15" value="- e: TextChangingEventArgs" style="text;strokeColor=none;fillColor=none;align=left;verticalAlign=top;spacingLeft=4;spacingRight=4;overflow=hidden;rotatable=0;points=[[0,0.5],[1,0.5]];portConstraint=eastwest;whiteSpace=wrap;html=1;" parent="Zv1G3qLZkO9gbC-gxjes-11" vertex="1">
          <mxGeometry y="52" width="180" height="26" as="geometry" />
        </mxCell>
        <mxCell id="Zv1G3qLZkO9gbC-gxjes-23" value="+ graph: Canvas" style="text;strokeColor=none;fillColor=none;align=left;verticalAlign=top;spacingLeft=4;spacingRight=4;overflow=hidden;rotatable=0;points=[[0,0.5],[1,0.5]];portConstraint=eastwest;whiteSpace=wrap;html=1;" parent="Zv1G3qLZkO9gbC-gxjes-11" vertex="1">
          <mxGeometry y="78" width="180" height="26" as="geometry" />
        </mxCell>
        <mxCell id="Zv1G3qLZkO9gbC-gxjes-24" value="" style="endArrow=none;dashed=1;html=1;rounded=0;exitX=-0.006;exitY=1.073;exitDx=0;exitDy=0;exitPerimeter=0;" parent="Zv1G3qLZkO9gbC-gxjes-11" source="Zv1G3qLZkO9gbC-gxjes-15" edge="1">
          <mxGeometry width="50" height="50" relative="1" as="geometry">
            <mxPoint x="130" y="60" as="sourcePoint" />
            <mxPoint x="180" y="80" as="targetPoint" />
          </mxGeometry>
        </mxCell>
        <mxCell id="Zv1G3qLZkO9gbC-gxjes-16" value="" style="endArrow=block;html=1;rounded=0;exitX=0.478;exitY=1.053;exitDx=0;exitDy=0;exitPerimeter=0;entryX=0;entryY=0.992;entryDx=0;entryDy=0;entryPerimeter=0;dashed=1;endFill=0;" parent="1" source="Zv1G3qLZkO9gbC-gxjes-3" target="Zv1G3qLZkO9gbC-gxjes-12" edge="1">
          <mxGeometry width="50" height="50" relative="1" as="geometry">
            <mxPoint x="230" y="370" as="sourcePoint" />
            <mxPoint x="280" y="320" as="targetPoint" />
            <Array as="points">
              <mxPoint x="170" y="330" />
            </Array>
          </mxGeometry>
        </mxCell>
        <mxCell id="Zv1G3qLZkO9gbC-gxjes-17" value="" style="endArrow=block;html=1;rounded=0;exitX=0.504;exitY=1.027;exitDx=0;exitDy=0;exitPerimeter=0;entryX=1;entryY=0.923;entryDx=0;entryDy=0;entryPerimeter=0;dashed=1;endFill=0;" parent="1" source="Zv1G3qLZkO9gbC-gxjes-10" target="Zv1G3qLZkO9gbC-gxjes-12" edge="1">
          <mxGeometry width="50" height="50" relative="1" as="geometry">
            <mxPoint x="230" y="370" as="sourcePoint" />
            <mxPoint x="280" y="320" as="targetPoint" />
            <Array as="points">
              <mxPoint x="476" y="330" />
            </Array>
          </mxGeometry>
        </mxCell>
      </root>
    </mxGraphModel>
  </diagram>
  <diagram id="rA2GJa2sUVs7XxkU9tVr" name="диаграмма компонентов">
    <mxGraphModel dx="1434" dy="844" grid="1" gridSize="10" guides="1" tooltips="1" connect="1" arrows="1" fold="1" page="1" pageScale="1" pageWidth="827" pageHeight="1169" math="0" shadow="0">
      <root>
        <mxCell id="0" />
        <mxCell id="1" parent="0" />
        <mxCell id="2aJgSvEeDbKm0IJ20A5D-4" value="" style="rounded=0;whiteSpace=wrap;html=1;fillColor=#f8cecc;strokeColor=#b85450;" parent="1" vertex="1">
          <mxGeometry x="10" y="260" width="130" height="30" as="geometry" />
        </mxCell>
        <mxCell id="2aJgSvEeDbKm0IJ20A5D-5" value="Практика" style="text;html=1;align=center;verticalAlign=middle;whiteSpace=wrap;rounded=0;" parent="1" vertex="1">
          <mxGeometry x="45" y="260" width="60" height="30" as="geometry" />
        </mxCell>
        <mxCell id="2aJgSvEeDbKm0IJ20A5D-6" value="" style="rounded=0;whiteSpace=wrap;html=1;strokeColor=#FF9999;" parent="1" vertex="1">
          <mxGeometry x="10" y="290" width="800" height="120" as="geometry" />
        </mxCell>
        <mxCell id="2aJgSvEeDbKm0IJ20A5D-7" value="«компонент:программа»&lt;br&gt;&lt;br&gt;&lt;div&gt;&lt;b&gt;Интерфейс приложения&lt;/b&gt;&lt;/div&gt;" style="html=1;dropTarget=0;whiteSpace=wrap;" parent="1" vertex="1">
          <mxGeometry x="20" y="310" width="190" height="70" as="geometry" />
        </mxCell>
        <mxCell id="2aJgSvEeDbKm0IJ20A5D-8" value="" style="shape=module;jettyWidth=8;jettyHeight=4;" parent="2aJgSvEeDbKm0IJ20A5D-7" vertex="1">
          <mxGeometry x="1" width="20" height="20" relative="1" as="geometry">
            <mxPoint x="-27" y="7" as="offset" />
          </mxGeometry>
        </mxCell>
        <mxCell id="2aJgSvEeDbKm0IJ20A5D-9" value="«компонент:программа»&lt;br&gt;&lt;br&gt;&lt;div&gt;&lt;b&gt;Основная функция&lt;/b&gt;&lt;/div&gt;" style="html=1;dropTarget=0;whiteSpace=wrap;" parent="1" vertex="1">
          <mxGeometry x="260" y="310" width="190" height="70" as="geometry" />
        </mxCell>
        <mxCell id="2aJgSvEeDbKm0IJ20A5D-10" value="" style="shape=module;jettyWidth=8;jettyHeight=4;" parent="2aJgSvEeDbKm0IJ20A5D-9" vertex="1">
          <mxGeometry x="1" width="20" height="20" relative="1" as="geometry">
            <mxPoint x="-27" y="7" as="offset" />
          </mxGeometry>
        </mxCell>
        <mxCell id="2aJgSvEeDbKm0IJ20A5D-11" value="«компонент:программа»&lt;br&gt;&lt;br&gt;&lt;div&gt;&lt;b&gt;Класс&lt;/b&gt;&lt;/div&gt;" style="html=1;dropTarget=0;whiteSpace=wrap;" parent="1" vertex="1">
          <mxGeometry x="500" y="310" width="190" height="70" as="geometry" />
        </mxCell>
        <mxCell id="2aJgSvEeDbKm0IJ20A5D-12" value="" style="shape=module;jettyWidth=8;jettyHeight=4;" parent="2aJgSvEeDbKm0IJ20A5D-11" vertex="1">
          <mxGeometry x="1" width="20" height="20" relative="1" as="geometry">
            <mxPoint x="-27" y="7" as="offset" />
          </mxGeometry>
        </mxCell>
        <mxCell id="vaccUojBCDLg4G6jRVPS-1" value="" style="rounded=0;orthogonalLoop=1;jettySize=auto;html=1;endArrow=halfCircle;endFill=0;endSize=6;strokeWidth=1;sketch=0;exitX=1;exitY=0.5;exitDx=0;exitDy=0;" parent="1" source="vaccUojBCDLg4G6jRVPS-11" edge="1">
          <mxGeometry relative="1" as="geometry">
            <mxPoint x="450" y="375" as="sourcePoint" />
            <mxPoint x="480" y="345" as="targetPoint" />
          </mxGeometry>
        </mxCell>
        <mxCell id="vaccUojBCDLg4G6jRVPS-2" value="" style="rounded=0;orthogonalLoop=1;jettySize=auto;html=1;endArrow=oval;endFill=1;sketch=0;sourcePerimeterSpacing=0;targetPerimeterSpacing=0;endSize=10;exitX=0;exitY=0.5;exitDx=0;exitDy=0;" parent="1" source="vaccUojBCDLg4G6jRVPS-13" edge="1">
          <mxGeometry relative="1" as="geometry">
            <mxPoint x="410" y="375" as="sourcePoint" />
            <mxPoint x="480" y="345" as="targetPoint" />
          </mxGeometry>
        </mxCell>
        <mxCell id="vaccUojBCDLg4G6jRVPS-3" value="" style="ellipse;whiteSpace=wrap;html=1;align=center;aspect=fixed;fillColor=none;strokeColor=none;resizable=0;perimeter=centerPerimeter;rotatable=0;allowArrows=0;points=[];outlineConnect=1;" parent="1" vertex="1">
          <mxGeometry x="425" y="370" width="10" height="10" as="geometry" />
        </mxCell>
        <mxCell id="vaccUojBCDLg4G6jRVPS-4" value="" style="rounded=0;orthogonalLoop=1;jettySize=auto;html=1;endArrow=halfCircle;endFill=0;endSize=6;strokeWidth=1;sketch=0;exitX=1;exitY=0.5;exitDx=0;exitDy=0;" parent="1" source="vaccUojBCDLg4G6jRVPS-7" edge="1">
          <mxGeometry relative="1" as="geometry">
            <mxPoint x="450" y="375" as="sourcePoint" />
            <mxPoint x="230" y="345" as="targetPoint" />
          </mxGeometry>
        </mxCell>
        <mxCell id="vaccUojBCDLg4G6jRVPS-5" value="" style="rounded=0;orthogonalLoop=1;jettySize=auto;html=1;endArrow=oval;endFill=1;sketch=0;sourcePerimeterSpacing=0;targetPerimeterSpacing=0;endSize=10;exitX=0;exitY=0.5;exitDx=0;exitDy=0;" parent="1" source="vaccUojBCDLg4G6jRVPS-10" edge="1">
          <mxGeometry relative="1" as="geometry">
            <mxPoint x="380" y="450" as="sourcePoint" />
            <mxPoint x="230" y="345" as="targetPoint" />
          </mxGeometry>
        </mxCell>
        <mxCell id="vaccUojBCDLg4G6jRVPS-6" value="" style="ellipse;whiteSpace=wrap;html=1;align=center;aspect=fixed;fillColor=none;strokeColor=none;resizable=0;perimeter=centerPerimeter;rotatable=0;allowArrows=0;points=[];outlineConnect=1;" parent="1" vertex="1">
          <mxGeometry x="425" y="370" width="10" height="10" as="geometry" />
        </mxCell>
        <mxCell id="vaccUojBCDLg4G6jRVPS-9" value="" style="rounded=0;orthogonalLoop=1;jettySize=auto;html=1;endArrow=halfCircle;endFill=0;endSize=6;strokeWidth=1;sketch=0;exitX=1;exitY=0.5;exitDx=0;exitDy=0;" parent="1" source="2aJgSvEeDbKm0IJ20A5D-7" target="vaccUojBCDLg4G6jRVPS-7" edge="1">
          <mxGeometry relative="1" as="geometry">
            <mxPoint x="210" y="345" as="sourcePoint" />
            <mxPoint x="230" y="345" as="targetPoint" />
          </mxGeometry>
        </mxCell>
        <mxCell id="vaccUojBCDLg4G6jRVPS-7" value="" style="rounded=0;whiteSpace=wrap;html=1;fillColor=#000000;" parent="1" vertex="1">
          <mxGeometry x="200" y="340" width="10" height="10" as="geometry" />
        </mxCell>
        <mxCell id="vaccUojBCDLg4G6jRVPS-12" value="" style="rounded=0;orthogonalLoop=1;jettySize=auto;html=1;endArrow=halfCircle;endFill=0;endSize=6;strokeWidth=1;sketch=0;exitX=1;exitY=0.5;exitDx=0;exitDy=0;" parent="1" source="2aJgSvEeDbKm0IJ20A5D-9" target="vaccUojBCDLg4G6jRVPS-11" edge="1">
          <mxGeometry relative="1" as="geometry">
            <mxPoint x="450" y="345" as="sourcePoint" />
            <mxPoint x="480" y="345" as="targetPoint" />
          </mxGeometry>
        </mxCell>
        <mxCell id="vaccUojBCDLg4G6jRVPS-11" value="" style="rounded=0;whiteSpace=wrap;html=1;fillColor=#000000;" parent="1" vertex="1">
          <mxGeometry x="440" y="340" width="10" height="10" as="geometry" />
        </mxCell>
        <mxCell id="vaccUojBCDLg4G6jRVPS-14" value="" style="rounded=0;orthogonalLoop=1;jettySize=auto;html=1;endArrow=oval;endFill=1;sketch=0;sourcePerimeterSpacing=0;targetPerimeterSpacing=0;endSize=10;exitX=0;exitY=0.5;exitDx=0;exitDy=0;" parent="1" source="2aJgSvEeDbKm0IJ20A5D-11" target="vaccUojBCDLg4G6jRVPS-13" edge="1">
          <mxGeometry relative="1" as="geometry">
            <mxPoint x="500" y="345" as="sourcePoint" />
            <mxPoint x="480" y="345" as="targetPoint" />
          </mxGeometry>
        </mxCell>
        <mxCell id="vaccUojBCDLg4G6jRVPS-13" value="" style="rounded=0;whiteSpace=wrap;html=1;fillColor=#000000;" parent="1" vertex="1">
          <mxGeometry x="500" y="340" width="10" height="10" as="geometry" />
        </mxCell>
        <mxCell id="vaccUojBCDLg4G6jRVPS-15" value="" style="rounded=0;orthogonalLoop=1;jettySize=auto;html=1;endArrow=oval;endFill=1;sketch=0;sourcePerimeterSpacing=0;targetPerimeterSpacing=0;endSize=10;exitX=0;exitY=0.5;exitDx=0;exitDy=0;" parent="1" source="2aJgSvEeDbKm0IJ20A5D-9" target="vaccUojBCDLg4G6jRVPS-10" edge="1">
          <mxGeometry relative="1" as="geometry">
            <mxPoint x="260" y="345" as="sourcePoint" />
            <mxPoint x="230" y="345" as="targetPoint" />
          </mxGeometry>
        </mxCell>
        <mxCell id="vaccUojBCDLg4G6jRVPS-10" value="" style="rounded=0;whiteSpace=wrap;html=1;fillColor=#000000;" parent="1" vertex="1">
          <mxGeometry x="260" y="340" width="10" height="10" as="geometry" />
        </mxCell>
      </root>
    </mxGraphModel>
  </diagram>
  <diagram id="xJ5rhinc8W-jRKcdGgG-" name="диаграмма коопераций">
    <mxGraphModel dx="1195" dy="703" grid="1" gridSize="10" guides="1" tooltips="1" connect="1" arrows="1" fold="1" page="1" pageScale="1" pageWidth="827" pageHeight="1169" math="0" shadow="0">
      <root>
        <mxCell id="0" />
        <mxCell id="1" parent="0" />
        <mxCell id="xKHNkrnqT2uQoiF8uwXC-1" value="Екатерина Александровна" style="shape=umlActor;verticalLabelPosition=bottom;verticalAlign=top;html=1;outlineConnect=0;" vertex="1" parent="1">
          <mxGeometry x="60" y="250" width="30" height="60" as="geometry" />
        </mxCell>
        <mxCell id="xKHNkrnqT2uQoiF8uwXC-2" value="И1: Интерфейс программы" style="rounded=0;whiteSpace=wrap;html=1;" vertex="1" parent="1">
          <mxGeometry x="220" y="245" width="100" height="50" as="geometry" />
        </mxCell>
        <mxCell id="xKHNkrnqT2uQoiF8uwXC-3" value="Ф1: Функционал программы" style="rounded=0;whiteSpace=wrap;html=1;" vertex="1" parent="1">
          <mxGeometry x="470" y="245" width="100" height="50" as="geometry" />
        </mxCell>
        <mxCell id="xKHNkrnqT2uQoiF8uwXC-4" value="К1: Класс" style="rounded=0;whiteSpace=wrap;html=1;" vertex="1" parent="1">
          <mxGeometry x="700" y="245" width="110" height="50" as="geometry" />
        </mxCell>
        <mxCell id="xKHNkrnqT2uQoiF8uwXC-5" value="" style="endArrow=none;html=1;rounded=0;entryX=1;entryY=0.3333333333333333;entryDx=0;entryDy=0;entryPerimeter=0;exitX=0;exitY=0.5;exitDx=0;exitDy=0;" edge="1" parent="1" source="xKHNkrnqT2uQoiF8uwXC-2" target="xKHNkrnqT2uQoiF8uwXC-1">
          <mxGeometry width="50" height="50" relative="1" as="geometry">
            <mxPoint x="390" y="460" as="sourcePoint" />
            <mxPoint x="440" y="410" as="targetPoint" />
          </mxGeometry>
        </mxCell>
        <mxCell id="xKHNkrnqT2uQoiF8uwXC-6" value="" style="endArrow=none;html=1;rounded=0;entryX=1;entryY=0.5;entryDx=0;entryDy=0;exitX=0;exitY=0.5;exitDx=0;exitDy=0;" edge="1" parent="1" source="xKHNkrnqT2uQoiF8uwXC-3" target="xKHNkrnqT2uQoiF8uwXC-2">
          <mxGeometry width="50" height="50" relative="1" as="geometry">
            <mxPoint x="390" y="460" as="sourcePoint" />
            <mxPoint x="440" y="410" as="targetPoint" />
          </mxGeometry>
        </mxCell>
        <mxCell id="xKHNkrnqT2uQoiF8uwXC-7" value="" style="endArrow=none;html=1;rounded=0;entryX=1;entryY=0.5;entryDx=0;entryDy=0;exitX=0;exitY=0.5;exitDx=0;exitDy=0;" edge="1" parent="1" source="xKHNkrnqT2uQoiF8uwXC-4" target="xKHNkrnqT2uQoiF8uwXC-3">
          <mxGeometry width="50" height="50" relative="1" as="geometry">
            <mxPoint x="390" y="460" as="sourcePoint" />
            <mxPoint x="440" y="410" as="targetPoint" />
          </mxGeometry>
        </mxCell>
        <mxCell id="xKHNkrnqT2uQoiF8uwXC-10" value="" style="group" vertex="1" connectable="0" parent="1">
          <mxGeometry x="100" y="240" width="40" height="20" as="geometry" />
        </mxCell>
        <mxCell id="xKHNkrnqT2uQoiF8uwXC-8" value="" style="ellipse;whiteSpace=wrap;html=1;aspect=fixed;" vertex="1" parent="xKHNkrnqT2uQoiF8uwXC-10">
          <mxGeometry width="20" height="20" as="geometry" />
        </mxCell>
        <mxCell id="xKHNkrnqT2uQoiF8uwXC-9" value="" style="endArrow=classic;html=1;rounded=0;exitX=1;exitY=0.5;exitDx=0;exitDy=0;" edge="1" parent="xKHNkrnqT2uQoiF8uwXC-10" source="xKHNkrnqT2uQoiF8uwXC-8">
          <mxGeometry width="50" height="50" relative="1" as="geometry">
            <mxPoint x="160" y="30" as="sourcePoint" />
            <mxPoint x="40" y="10" as="targetPoint" />
          </mxGeometry>
        </mxCell>
        <mxCell id="xKHNkrnqT2uQoiF8uwXC-12" value="" style="group" vertex="1" connectable="0" parent="1">
          <mxGeometry x="320" y="240" width="40" height="20" as="geometry" />
        </mxCell>
        <mxCell id="xKHNkrnqT2uQoiF8uwXC-13" value="" style="ellipse;whiteSpace=wrap;html=1;aspect=fixed;" vertex="1" parent="xKHNkrnqT2uQoiF8uwXC-12">
          <mxGeometry width="20" height="20" as="geometry" />
        </mxCell>
        <mxCell id="xKHNkrnqT2uQoiF8uwXC-14" value="" style="endArrow=classic;html=1;rounded=0;exitX=1;exitY=0.5;exitDx=0;exitDy=0;" edge="1" parent="xKHNkrnqT2uQoiF8uwXC-12" source="xKHNkrnqT2uQoiF8uwXC-13">
          <mxGeometry width="50" height="50" relative="1" as="geometry">
            <mxPoint x="160" y="30" as="sourcePoint" />
            <mxPoint x="40" y="10" as="targetPoint" />
          </mxGeometry>
        </mxCell>
        <mxCell id="xKHNkrnqT2uQoiF8uwXC-15" value="" style="group" vertex="1" connectable="0" parent="1">
          <mxGeometry x="570" y="240" width="40" height="20" as="geometry" />
        </mxCell>
        <mxCell id="xKHNkrnqT2uQoiF8uwXC-16" value="" style="ellipse;whiteSpace=wrap;html=1;aspect=fixed;" vertex="1" parent="xKHNkrnqT2uQoiF8uwXC-15">
          <mxGeometry width="20" height="20" as="geometry" />
        </mxCell>
        <mxCell id="xKHNkrnqT2uQoiF8uwXC-17" value="" style="endArrow=classic;html=1;rounded=0;exitX=1;exitY=0.5;exitDx=0;exitDy=0;" edge="1" parent="xKHNkrnqT2uQoiF8uwXC-15" source="xKHNkrnqT2uQoiF8uwXC-16">
          <mxGeometry width="50" height="50" relative="1" as="geometry">
            <mxPoint x="160" y="30" as="sourcePoint" />
            <mxPoint x="40" y="10" as="targetPoint" />
          </mxGeometry>
        </mxCell>
        <mxCell id="xKHNkrnqT2uQoiF8uwXC-23" value="" style="group" vertex="1" connectable="0" parent="1">
          <mxGeometry x="180" y="280" width="40" height="20" as="geometry" />
        </mxCell>
        <mxCell id="xKHNkrnqT2uQoiF8uwXC-19" value="" style="ellipse;whiteSpace=wrap;html=1;aspect=fixed;" vertex="1" parent="xKHNkrnqT2uQoiF8uwXC-23">
          <mxGeometry x="20" width="20" height="20" as="geometry" />
        </mxCell>
        <mxCell id="xKHNkrnqT2uQoiF8uwXC-22" value="" style="endArrow=classic;html=1;rounded=0;exitX=0;exitY=0.5;exitDx=0;exitDy=0;" edge="1" parent="xKHNkrnqT2uQoiF8uwXC-23" source="xKHNkrnqT2uQoiF8uwXC-19">
          <mxGeometry width="50" height="50" relative="1" as="geometry">
            <mxPoint x="10" y="-20" as="sourcePoint" />
            <mxPoint y="10" as="targetPoint" />
          </mxGeometry>
        </mxCell>
        <mxCell id="xKHNkrnqT2uQoiF8uwXC-28" value="" style="group" vertex="1" connectable="0" parent="1">
          <mxGeometry x="430" y="280" width="40" height="20" as="geometry" />
        </mxCell>
        <mxCell id="xKHNkrnqT2uQoiF8uwXC-29" value="" style="ellipse;whiteSpace=wrap;html=1;aspect=fixed;" vertex="1" parent="xKHNkrnqT2uQoiF8uwXC-28">
          <mxGeometry x="20" width="20" height="20" as="geometry" />
        </mxCell>
        <mxCell id="xKHNkrnqT2uQoiF8uwXC-30" value="" style="endArrow=classic;html=1;rounded=0;exitX=0;exitY=0.5;exitDx=0;exitDy=0;" edge="1" parent="xKHNkrnqT2uQoiF8uwXC-28" source="xKHNkrnqT2uQoiF8uwXC-29">
          <mxGeometry width="50" height="50" relative="1" as="geometry">
            <mxPoint x="10" y="-20" as="sourcePoint" />
            <mxPoint y="10" as="targetPoint" />
          </mxGeometry>
        </mxCell>
        <mxCell id="xKHNkrnqT2uQoiF8uwXC-31" value="" style="group" vertex="1" connectable="0" parent="1">
          <mxGeometry x="660" y="280" width="40" height="20" as="geometry" />
        </mxCell>
        <mxCell id="xKHNkrnqT2uQoiF8uwXC-32" value="" style="ellipse;whiteSpace=wrap;html=1;aspect=fixed;" vertex="1" parent="xKHNkrnqT2uQoiF8uwXC-31">
          <mxGeometry x="20" width="20" height="20" as="geometry" />
        </mxCell>
        <mxCell id="xKHNkrnqT2uQoiF8uwXC-33" value="" style="endArrow=classic;html=1;rounded=0;exitX=0;exitY=0.5;exitDx=0;exitDy=0;" edge="1" parent="xKHNkrnqT2uQoiF8uwXC-31" source="xKHNkrnqT2uQoiF8uwXC-32">
          <mxGeometry width="50" height="50" relative="1" as="geometry">
            <mxPoint x="10" y="-20" as="sourcePoint" />
            <mxPoint y="10" as="targetPoint" />
          </mxGeometry>
        </mxCell>
        <mxCell id="xKHNkrnqT2uQoiF8uwXC-34" value="1. Ввод последовательности" style="text;html=1;align=center;verticalAlign=middle;whiteSpace=wrap;rounded=0;fontSize=10;" vertex="1" parent="1">
          <mxGeometry x="140" y="240" width="60" height="30" as="geometry" />
        </mxCell>
        <mxCell id="xKHNkrnqT2uQoiF8uwXC-35" value="2. Передача данных в функцию" style="text;html=1;align=center;verticalAlign=middle;whiteSpace=wrap;rounded=0;fontSize=10;" vertex="1" parent="1">
          <mxGeometry x="360" y="240" width="100" height="30" as="geometry" />
        </mxCell>
        <mxCell id="xKHNkrnqT2uQoiF8uwXC-36" value="3. Передача данных в класс" style="text;html=1;align=center;verticalAlign=middle;whiteSpace=wrap;rounded=0;fontSize=10;" vertex="1" parent="1">
          <mxGeometry x="610" y="240" width="90" height="30" as="geometry" />
        </mxCell>
        <mxCell id="xKHNkrnqT2uQoiF8uwXC-37" value="4. Возврат результатов" style="text;html=1;align=center;verticalAlign=middle;whiteSpace=wrap;rounded=0;fontSize=10;" vertex="1" parent="1">
          <mxGeometry x="580" y="270" width="60" height="30" as="geometry" />
        </mxCell>
        <mxCell id="xKHNkrnqT2uQoiF8uwXC-38" value="5. Отрисовка графика" style="text;html=1;align=center;verticalAlign=middle;whiteSpace=wrap;rounded=0;fontSize=10;" vertex="1" parent="1">
          <mxGeometry x="340" y="275" width="70" height="30" as="geometry" />
        </mxCell>
        <mxCell id="xKHNkrnqT2uQoiF8uwXC-39" value="6. Вывод графика" style="text;html=1;align=center;verticalAlign=middle;whiteSpace=wrap;rounded=0;fontSize=10;" vertex="1" parent="1">
          <mxGeometry x="110" y="275" width="60" height="30" as="geometry" />
        </mxCell>
      </root>
    </mxGraphModel>
  </diagram>
  <diagram id="nMarx1bsm-XobDDswuok" name="диаграмма развёртывания">
    <mxGraphModel dx="1434" dy="844" grid="1" gridSize="10" guides="1" tooltips="1" connect="1" arrows="1" fold="1" page="1" pageScale="1" pageWidth="827" pageHeight="1169" math="0" shadow="0">
      <root>
        <mxCell id="0" />
        <mxCell id="1" parent="0" />
        <mxCell id="OyH5dxms014diJ2bM4Ll-1" value="Рабочая станция Екатерины Александровны" style="verticalAlign=top;align=left;spacingTop=8;spacingLeft=2;spacingRight=12;shape=cube;size=10;direction=south;fontStyle=4;html=1;whiteSpace=wrap;" vertex="1" parent="1">
          <mxGeometry x="10" y="170" width="180" height="120" as="geometry" />
        </mxCell>
        <mxCell id="OyH5dxms014diJ2bM4Ll-2" value="Устройство: ПЭВМ" style="verticalAlign=top;align=left;spacingTop=8;spacingLeft=2;spacingRight=12;shape=cube;size=10;direction=south;fontStyle=4;html=1;whiteSpace=wrap;" vertex="1" parent="1">
          <mxGeometry x="234" y="170" width="180" height="120" as="geometry" />
        </mxCell>
        <mxCell id="OyH5dxms014diJ2bM4Ll-3" value="Моя программа" style="verticalAlign=top;align=left;spacingTop=8;spacingLeft=2;spacingRight=12;shape=cube;size=10;direction=south;fontStyle=4;html=1;whiteSpace=wrap;" vertex="1" parent="1">
          <mxGeometry x="450" y="170" width="180" height="120" as="geometry" />
        </mxCell>
        <mxCell id="OyH5dxms014diJ2bM4Ll-4" value="Сервер RSSK" style="verticalAlign=top;align=left;spacingTop=8;spacingLeft=2;spacingRight=12;shape=cube;size=10;direction=south;fontStyle=4;html=1;whiteSpace=wrap;" vertex="1" parent="1">
          <mxGeometry x="690" y="180" width="100" height="80" as="geometry" />
        </mxCell>
        <mxCell id="OyH5dxms014diJ2bM4Ll-5" value="" style="endArrow=classicThin;html=1;rounded=0;exitX=0;exitY=0;exitDx=45;exitDy=100;exitPerimeter=0;entryX=0;entryY=0;entryDx=55;entryDy=0;entryPerimeter=0;dashed=1;endFill=1;" edge="1" parent="1" source="OyH5dxms014diJ2bM4Ll-4" target="OyH5dxms014diJ2bM4Ll-3">
          <mxGeometry width="50" height="50" relative="1" as="geometry">
            <mxPoint x="390" y="460" as="sourcePoint" />
            <mxPoint x="440" y="410" as="targetPoint" />
          </mxGeometry>
        </mxCell>
        <mxCell id="OyH5dxms014diJ2bM4Ll-6" value="исп." style="edgeLabel;html=1;align=center;verticalAlign=middle;resizable=0;points=[];" vertex="1" connectable="0" parent="OyH5dxms014diJ2bM4Ll-5">
          <mxGeometry y="-3" relative="1" as="geometry">
            <mxPoint as="offset" />
          </mxGeometry>
        </mxCell>
        <mxCell id="OyH5dxms014diJ2bM4Ll-7" value="Модуль расчёта прогрессии" style="html=1;dropTarget=0;whiteSpace=wrap;" vertex="1" parent="1">
          <mxGeometry x="460" y="210" width="150" height="30" as="geometry" />
        </mxCell>
        <mxCell id="OyH5dxms014diJ2bM4Ll-8" value="" style="shape=module;jettyWidth=8;jettyHeight=4;" vertex="1" parent="OyH5dxms014diJ2bM4Ll-7">
          <mxGeometry x="1" width="20" height="20" relative="1" as="geometry">
            <mxPoint x="-27" y="7" as="offset" />
          </mxGeometry>
        </mxCell>
        <mxCell id="OyH5dxms014diJ2bM4Ll-9" value="Модуль рисования графика" style="html=1;dropTarget=0;whiteSpace=wrap;" vertex="1" parent="1">
          <mxGeometry x="460" y="250" width="150" height="30" as="geometry" />
        </mxCell>
        <mxCell id="OyH5dxms014diJ2bM4Ll-10" value="" style="shape=module;jettyWidth=8;jettyHeight=4;" vertex="1" parent="OyH5dxms014diJ2bM4Ll-9">
          <mxGeometry x="1" width="20" height="20" relative="1" as="geometry">
            <mxPoint x="-27" y="7" as="offset" />
          </mxGeometry>
        </mxCell>
        <mxCell id="OyH5dxms014diJ2bM4Ll-11" value="" style="endArrow=none;html=1;rounded=0;entryX=0;entryY=0;entryDx=55;entryDy=0;entryPerimeter=0;exitX=0.453;exitY=1.004;exitDx=0;exitDy=0;exitPerimeter=0;" edge="1" parent="1" source="OyH5dxms014diJ2bM4Ll-3" target="OyH5dxms014diJ2bM4Ll-2">
          <mxGeometry width="50" height="50" relative="1" as="geometry">
            <mxPoint x="390" y="460" as="sourcePoint" />
            <mxPoint x="440" y="410" as="targetPoint" />
          </mxGeometry>
        </mxCell>
        <mxCell id="OyH5dxms014diJ2bM4Ll-12" value="" style="endArrow=none;html=1;rounded=0;exitX=0;exitY=0;exitDx=55;exitDy=0;exitPerimeter=0;entryX=0.461;entryY=0.996;entryDx=0;entryDy=0;entryPerimeter=0;" edge="1" parent="1" source="OyH5dxms014diJ2bM4Ll-1" target="OyH5dxms014diJ2bM4Ll-2">
          <mxGeometry width="50" height="50" relative="1" as="geometry">
            <mxPoint x="380" y="260" as="sourcePoint" />
            <mxPoint x="240" y="225" as="targetPoint" />
          </mxGeometry>
        </mxCell>
        <mxCell id="OyH5dxms014diJ2bM4Ll-13" value="+ ОС: Windows&lt;div&gt;+ Интернет: 50 мб/сек&lt;/div&gt;" style="html=1;whiteSpace=wrap;align=left;" vertex="1" parent="1">
          <mxGeometry x="250" y="210" width="140" height="60" as="geometry" />
        </mxCell>
        <mxCell id="OyH5dxms014diJ2bM4Ll-16" value="Модуль прямого подключения к серверу" style="html=1;dropTarget=0;whiteSpace=wrap;" vertex="1" parent="1">
          <mxGeometry x="20" y="220" width="150" height="60" as="geometry" />
        </mxCell>
        <mxCell id="OyH5dxms014diJ2bM4Ll-17" value="" style="shape=module;jettyWidth=8;jettyHeight=4;" vertex="1" parent="OyH5dxms014diJ2bM4Ll-16">
          <mxGeometry x="1" width="20" height="20" relative="1" as="geometry">
            <mxPoint x="-27" y="7" as="offset" />
          </mxGeometry>
        </mxCell>
      </root>
    </mxGraphModel>
  </diagram>
  <diagram id="R9nBHD5dTyNtKwUI3u1c" name="С4 - контекст">
    <mxGraphModel dx="1434" dy="844" grid="1" gridSize="10" guides="1" tooltips="1" connect="1" arrows="1" fold="1" page="1" pageScale="1" pageWidth="827" pageHeight="1169" math="0" shadow="0">
      <root>
        <mxCell id="0" />
        <mxCell id="1" parent="0" />
        <object placeholders="1" c4Name="Программа практики" c4Type="Software System" c4Description="Обеспечивает работу программы" label="&lt;font style=&quot;font-size: 16px&quot;&gt;&lt;b&gt;%c4Name%&lt;/b&gt;&lt;/font&gt;&lt;div&gt;[%c4Type%]&lt;/div&gt;&lt;br&gt;&lt;div&gt;&lt;font style=&quot;font-size: 11px&quot;&gt;&lt;font color=&quot;#cccccc&quot;&gt;%c4Description%&lt;/font&gt;&lt;/div&gt;" link="data:page/id,mG8CKm3cFuM6iQvDtHmf" id="kX71zTnz4uvZZAYcPScI-1">
          <mxCell style="rounded=1;whiteSpace=wrap;html=1;labelBackgroundColor=none;fillColor=#1061B0;fontColor=#ffffff;align=center;arcSize=10;strokeColor=#0D5091;metaEdit=1;resizable=0;points=[[0.25,0,0],[0.5,0,0],[0.75,0,0],[1,0.25,0],[1,0.5,0],[1,0.75,0],[0.75,1,0],[0.5,1,0],[0.25,1,0],[0,0.75,0],[0,0.5,0],[0,0.25,0]];" vertex="1" parent="1">
            <mxGeometry x="310" y="340" width="240" height="120" as="geometry" />
          </mxCell>
        </object>
        <object placeholders="1" c4Name="Екатерина Александровна" c4Type="Person" c4Description="Ломает программу" label="&lt;font style=&quot;font-size: 16px&quot;&gt;&lt;b&gt;%c4Name%&lt;/b&gt;&lt;/font&gt;&lt;div&gt;[%c4Type%]&lt;/div&gt;&lt;br&gt;&lt;div&gt;&lt;font style=&quot;font-size: 11px&quot;&gt;&lt;font color=&quot;#cccccc&quot;&gt;%c4Description%&lt;/font&gt;&lt;/div&gt;" id="kX71zTnz4uvZZAYcPScI-2">
          <mxCell style="html=1;fontSize=11;dashed=0;whiteSpace=wrap;fillColor=#083F75;strokeColor=#06315C;fontColor=#ffffff;shape=mxgraph.c4.person2;align=center;metaEdit=1;points=[[0.5,0,0],[1,0.5,0],[1,0.75,0],[0.75,1,0],[0.5,1,0],[0.25,1,0],[0,0.75,0],[0,0.5,0]];resizable=0;" vertex="1" parent="1">
            <mxGeometry x="330" y="40" width="200" height="180" as="geometry" />
          </mxCell>
        </object>
        <mxCell id="kX71zTnz4uvZZAYcPScI-3" value="" style="endArrow=classic;html=1;rounded=0;exitX=0.5;exitY=1;exitDx=0;exitDy=0;exitPerimeter=0;entryX=0.5;entryY=0;entryDx=0;entryDy=0;entryPerimeter=0;strokeColor=#808080;" edge="1" parent="1" source="kX71zTnz4uvZZAYcPScI-2" target="kX71zTnz4uvZZAYcPScI-1">
          <mxGeometry width="50" height="50" relative="1" as="geometry">
            <mxPoint x="390" y="460" as="sourcePoint" />
            <mxPoint x="440" y="410" as="targetPoint" />
          </mxGeometry>
        </mxCell>
        <mxCell id="kX71zTnz4uvZZAYcPScI-4" value="Играется с вводом" style="edgeLabel;html=1;align=center;verticalAlign=middle;resizable=0;points=[];" vertex="1" connectable="0" parent="kX71zTnz4uvZZAYcPScI-3">
          <mxGeometry x="0.1667" y="5" relative="1" as="geometry">
            <mxPoint x="-5" y="-10" as="offset" />
          </mxGeometry>
        </mxCell>
      </root>
    </mxGraphModel>
  </diagram>
  <diagram id="mG8CKm3cFuM6iQvDtHmf" name="С4 - контейнер">
    <mxGraphModel dx="1434" dy="844" grid="1" gridSize="10" guides="1" tooltips="1" connect="1" arrows="1" fold="1" page="1" pageScale="1" pageWidth="827" pageHeight="1169" math="0" shadow="0">
      <root>
        <mxCell id="0" />
        <mxCell id="1" parent="0" />
        <object placeholders="1" c4Name="Программа практики" c4Type="Software System" c4Description="Обеспечивает работу программы" label="&lt;font style=&quot;font-size: 16px&quot;&gt;&lt;b&gt;%c4Name%&lt;/b&gt;&lt;/font&gt;&lt;div&gt;[%c4Type%]&lt;/div&gt;&lt;br&gt;&lt;div&gt;&lt;font style=&quot;font-size: 11px&quot;&gt;&lt;font color=&quot;#cccccc&quot;&gt;%c4Description%&lt;/font&gt;&lt;/div&gt;" link="data:page/id,qrhpUDMtGGTtrTMAWHRk" id="hMVoXLFxPzAwSy3iSeyp-1">
          <mxCell style="rounded=1;whiteSpace=wrap;html=1;labelBackgroundColor=none;fillColor=#1061B0;fontColor=#ffffff;align=center;arcSize=10;strokeColor=#0D5091;metaEdit=1;resizable=0;points=[[0.25,0,0],[0.5,0,0],[0.75,0,0],[1,0.25,0],[1,0.5,0],[1,0.75,0],[0.75,1,0],[0.5,1,0],[0.25,1,0],[0,0.75,0],[0,0.5,0],[0,0.25,0]];" vertex="1" parent="1">
            <mxGeometry x="430" y="500" width="240" height="120" as="geometry" />
          </mxCell>
        </object>
        <object placeholders="1" c4Name="Екатерина Александровна" c4Type="Person" c4Description="Ломает программу" label="&lt;font style=&quot;font-size: 16px&quot;&gt;&lt;b&gt;%c4Name%&lt;/b&gt;&lt;/font&gt;&lt;div&gt;[%c4Type%]&lt;/div&gt;&lt;br&gt;&lt;div&gt;&lt;font style=&quot;font-size: 11px&quot;&gt;&lt;font color=&quot;#cccccc&quot;&gt;%c4Description%&lt;/font&gt;&lt;/div&gt;" id="hMVoXLFxPzAwSy3iSeyp-2">
          <mxCell style="html=1;fontSize=11;dashed=0;whiteSpace=wrap;fillColor=#083F75;strokeColor=#06315C;fontColor=#ffffff;shape=mxgraph.c4.person2;align=center;metaEdit=1;points=[[0.5,0,0],[1,0.5,0],[1,0.75,0],[0.75,1,0],[0.5,1,0],[0.25,1,0],[0,0.75,0],[0,0.5,0]];resizable=0;" vertex="1" parent="1">
            <mxGeometry x="450" y="40" width="200" height="180" as="geometry" />
          </mxCell>
        </object>
        <mxCell id="hMVoXLFxPzAwSy3iSeyp-3" value="" style="endArrow=classic;html=1;rounded=0;entryX=0.5;entryY=0;entryDx=0;entryDy=0;entryPerimeter=0;strokeColor=#808080;exitX=0;exitY=0.5;exitDx=0;exitDy=0;exitPerimeter=0;" edge="1" parent="1" source="hMVoXLFxPzAwSy3iSeyp-1" target="hMVoXLFxPzAwSy3iSeyp-5">
          <mxGeometry width="50" height="50" relative="1" as="geometry">
            <mxPoint x="610" y="650" as="sourcePoint" />
            <mxPoint x="440" y="410" as="targetPoint" />
          </mxGeometry>
        </mxCell>
        <object placeholders="1" c4Type="Брокер" c4Container="Container" c4Technology="WPF" c4Description="Отображение приложения" label="&lt;font style=&quot;font-size: 16px&quot;&gt;&lt;b&gt;%c4Type%&lt;/b&gt;&lt;/font&gt;&lt;div&gt;[%c4Container%:&amp;nbsp;%c4Technology%]&lt;/div&gt;&lt;br&gt;&lt;div&gt;&lt;font style=&quot;font-size: 11px&quot;&gt;&lt;font color=&quot;#E6E6E6&quot;&gt;%c4Description%&lt;/font&gt;&lt;/div&gt;" id="hMVoXLFxPzAwSy3iSeyp-5">
          <mxCell style="shape=cylinder3;size=15;direction=south;whiteSpace=wrap;html=1;boundedLbl=1;rounded=0;labelBackgroundColor=none;fillColor=#23A2D9;fontSize=12;fontColor=#ffffff;align=center;strokeColor=#0E7DAD;metaEdit=1;points=[[0.5,0,0],[1,0.25,0],[1,0.5,0],[1,0.75,0],[0.5,1,0],[0,0.75,0],[0,0.5,0],[0,0.25,0]];resizable=0;" vertex="1" parent="1">
            <mxGeometry x="80" y="500" width="240" height="120" as="geometry" />
          </mxCell>
        </object>
        <mxCell id="hMVoXLFxPzAwSy3iSeyp-6" value="" style="endArrow=classic;html=1;rounded=0;strokeColor=#808080;exitX=0.5;exitY=1;exitDx=0;exitDy=0;exitPerimeter=0;entryX=0.5;entryY=0;entryDx=0;entryDy=0;entryPerimeter=0;" edge="1" parent="1" source="hMVoXLFxPzAwSy3iSeyp-2" target="hMVoXLFxPzAwSy3iSeyp-9">
          <mxGeometry width="50" height="50" relative="1" as="geometry">
            <mxPoint x="440" y="420" as="sourcePoint" />
            <mxPoint x="430" y="270" as="targetPoint" />
          </mxGeometry>
        </mxCell>
        <mxCell id="hMVoXLFxPzAwSy3iSeyp-7" value="Играется с вводом" style="edgeLabel;html=1;align=center;verticalAlign=middle;resizable=0;points=[];" vertex="1" connectable="0" parent="hMVoXLFxPzAwSy3iSeyp-6">
          <mxGeometry x="0.1667" y="5" relative="1" as="geometry">
            <mxPoint x="-5" y="-10" as="offset" />
          </mxGeometry>
        </mxCell>
        <object placeholders="1" c4Name="Десктопное приложение" c4Type="Container" c4Technology="Проект Visual Studio" c4Description="Игра с приложением" label="&lt;font style=&quot;font-size: 16px&quot;&gt;&lt;b&gt;%c4Name%&lt;/b&gt;&lt;/font&gt;&lt;div&gt;[%c4Type%: %c4Technology%]&lt;/div&gt;&lt;br&gt;&lt;div&gt;&lt;font style=&quot;font-size: 11px&quot;&gt;&lt;font color=&quot;#E6E6E6&quot;&gt;%c4Description%&lt;/font&gt;&lt;/div&gt;" id="hMVoXLFxPzAwSy3iSeyp-9">
          <mxCell style="rounded=1;whiteSpace=wrap;html=1;fontSize=11;labelBackgroundColor=none;fillColor=#23A2D9;fontColor=#ffffff;align=center;arcSize=10;strokeColor=#0E7DAD;metaEdit=1;resizable=0;points=[[0.25,0,0],[0.5,0,0],[0.75,0,0],[1,0.25,0],[1,0.5,0],[1,0.75,0],[0.75,1,0],[0.5,1,0],[0.25,1,0],[0,0.75,0],[0,0.5,0],[0,0.25,0]];" vertex="1" parent="1">
            <mxGeometry x="430" y="300" width="240" height="120" as="geometry" />
          </mxCell>
        </object>
        <mxCell id="hMVoXLFxPzAwSy3iSeyp-10" value="" style="endArrow=classic;html=1;rounded=0;strokeColor=#808080;exitX=0.5;exitY=1;exitDx=0;exitDy=0;exitPerimeter=0;entryX=0.5;entryY=0;entryDx=0;entryDy=0;entryPerimeter=0;" edge="1" parent="1" source="hMVoXLFxPzAwSy3iSeyp-9" target="hMVoXLFxPzAwSy3iSeyp-1">
          <mxGeometry width="50" height="50" relative="1" as="geometry">
            <mxPoint x="560" y="230" as="sourcePoint" />
            <mxPoint x="560" y="310" as="targetPoint" />
          </mxGeometry>
        </mxCell>
        <mxCell id="hMVoXLFxPzAwSy3iSeyp-11" value="Обращается к приложению" style="edgeLabel;html=1;align=center;verticalAlign=middle;resizable=0;points=[];" vertex="1" connectable="0" parent="hMVoXLFxPzAwSy3iSeyp-10">
          <mxGeometry x="0.1667" y="5" relative="1" as="geometry">
            <mxPoint x="-5" y="-10" as="offset" />
          </mxGeometry>
        </mxCell>
        <object placeholders="1" c4Name="Система работы программы практики" c4Type="SystemScopeBoundary" c4Application="Windows" label="&lt;font style=&quot;font-size: 16px&quot;&gt;&lt;b&gt;&lt;div style=&quot;text-align: left&quot;&gt;%c4Name%&lt;/div&gt;&lt;/b&gt;&lt;/font&gt;&lt;div style=&quot;text-align: left&quot;&gt;[%c4Application%]&lt;/div&gt;" id="hMVoXLFxPzAwSy3iSeyp-13">
          <mxCell style="rounded=1;fontSize=11;whiteSpace=wrap;html=1;dashed=1;arcSize=20;fillColor=none;strokeColor=#666666;fontColor=#333333;labelBackgroundColor=none;align=left;verticalAlign=bottom;labelBorderColor=none;spacingTop=0;spacing=10;dashPattern=8 4;metaEdit=1;rotatable=0;perimeter=rectanglePerimeter;noLabel=0;labelPadding=0;allowArrows=0;connectable=0;expand=0;recursiveResize=0;editable=1;pointerEvents=0;absoluteArcSize=1;points=[[0.25,0,0],[0.5,0,0],[0.75,0,0],[1,0.25,0],[1,0.5,0],[1,0.75,0],[0.75,1,0],[0.5,1,0],[0.25,1,0],[0,0.75,0],[0,0.5,0],[0,0.25,0]];" vertex="1" parent="1">
            <mxGeometry x="50" y="280" width="700" height="390" as="geometry" />
          </mxCell>
        </object>
      </root>
    </mxGraphModel>
  </diagram>
  <diagram id="qrhpUDMtGGTtrTMAWHRk" name="C4 -  компоненты">
    <mxGraphModel dx="1434" dy="844" grid="1" gridSize="10" guides="1" tooltips="1" connect="1" arrows="1" fold="1" page="1" pageScale="1" pageWidth="827" pageHeight="1169" math="0" shadow="0">
      <root>
        <mxCell id="0" />
        <mxCell id="1" parent="0" />
        <mxCell id="drpLaNtcHUxH5TFE6qVi-1" value="Устройство:&lt;br&gt;&lt;b&gt;Компьютер&lt;/b&gt;" style="html=1;dropTarget=0;whiteSpace=wrap;fillColor=#f8cecc;strokeColor=#b85450;" vertex="1" parent="1">
          <mxGeometry x="340" y="290" width="180" height="90" as="geometry" />
        </mxCell>
        <mxCell id="drpLaNtcHUxH5TFE6qVi-2" value="" style="shape=module;jettyWidth=8;jettyHeight=4;" vertex="1" parent="drpLaNtcHUxH5TFE6qVi-1">
          <mxGeometry x="1" width="20" height="20" relative="1" as="geometry">
            <mxPoint x="-27" y="7" as="offset" />
          </mxGeometry>
        </mxCell>
        <UserObject label="Программа&lt;br&gt;&lt;b&gt;Программа практики&lt;/b&gt;" link="data:page/id,kLAn0643hNyeC6gLk2_q" id="drpLaNtcHUxH5TFE6qVi-3">
          <mxCell style="html=1;dropTarget=0;whiteSpace=wrap;fillColor=#dae8fc;strokeColor=#6c8ebf;" vertex="1" parent="1">
            <mxGeometry x="340" y="140" width="180" height="90" as="geometry" />
          </mxCell>
        </UserObject>
        <mxCell id="drpLaNtcHUxH5TFE6qVi-4" value="" style="shape=module;jettyWidth=8;jettyHeight=4;" vertex="1" parent="drpLaNtcHUxH5TFE6qVi-3">
          <mxGeometry x="1" width="20" height="20" relative="1" as="geometry">
            <mxPoint x="-27" y="7" as="offset" />
          </mxGeometry>
        </mxCell>
        <mxCell id="drpLaNtcHUxH5TFE6qVi-5" value="ОС:&lt;br&gt;&lt;b&gt;Windows&lt;/b&gt;" style="html=1;dropTarget=0;whiteSpace=wrap;fillColor=#e1d5e7;strokeColor=#9673a6;" vertex="1" parent="1">
          <mxGeometry x="340" y="420" width="180" height="90" as="geometry" />
        </mxCell>
        <mxCell id="drpLaNtcHUxH5TFE6qVi-6" value="" style="shape=module;jettyWidth=8;jettyHeight=4;" vertex="1" parent="drpLaNtcHUxH5TFE6qVi-5">
          <mxGeometry x="1" width="20" height="20" relative="1" as="geometry">
            <mxPoint x="-27" y="7" as="offset" />
          </mxGeometry>
        </mxCell>
        <mxCell id="E90778OXJ3eeIql28Bn9-2" value="" style="rounded=0;orthogonalLoop=1;jettySize=auto;html=1;endArrow=halfCircle;endFill=0;endSize=6;strokeWidth=1;sketch=0;exitX=0.5;exitY=1;exitDx=0;exitDy=0;" edge="1" parent="1" source="drpLaNtcHUxH5TFE6qVi-3">
          <mxGeometry relative="1" as="geometry">
            <mxPoint x="430" y="435" as="sourcePoint" />
            <mxPoint x="430" y="260" as="targetPoint" />
          </mxGeometry>
        </mxCell>
        <mxCell id="E90778OXJ3eeIql28Bn9-3" value="" style="rounded=0;orthogonalLoop=1;jettySize=auto;html=1;endArrow=oval;endFill=1;sketch=0;sourcePerimeterSpacing=0;targetPerimeterSpacing=0;endSize=10;exitX=0.5;exitY=0;exitDx=0;exitDy=0;" edge="1" parent="1" source="drpLaNtcHUxH5TFE6qVi-1">
          <mxGeometry relative="1" as="geometry">
            <mxPoint x="430" y="270" as="sourcePoint" />
            <mxPoint x="430" y="260" as="targetPoint" />
          </mxGeometry>
        </mxCell>
        <mxCell id="E90778OXJ3eeIql28Bn9-4" value="" style="ellipse;whiteSpace=wrap;html=1;align=center;aspect=fixed;fillColor=none;strokeColor=none;resizable=0;perimeter=centerPerimeter;rotatable=0;allowArrows=0;points=[];outlineConnect=1;" vertex="1" parent="1">
          <mxGeometry x="405" y="430" width="10" height="10" as="geometry" />
        </mxCell>
        <mxCell id="E90778OXJ3eeIql28Bn9-5" value="" style="endArrow=open;html=1;rounded=0;exitX=0.5;exitY=1;exitDx=0;exitDy=0;entryX=0.5;entryY=0;entryDx=0;entryDy=0;endFill=0;dashed=1;" edge="1" parent="1" source="drpLaNtcHUxH5TFE6qVi-1" target="drpLaNtcHUxH5TFE6qVi-5">
          <mxGeometry width="50" height="50" relative="1" as="geometry">
            <mxPoint x="390" y="460" as="sourcePoint" />
            <mxPoint x="440" y="410" as="targetPoint" />
          </mxGeometry>
        </mxCell>
      </root>
    </mxGraphModel>
  </diagram>
  <diagram id="kLAn0643hNyeC6gLk2_q" name="С4 - код">
    <mxGraphModel dx="1434" dy="844" grid="1" gridSize="10" guides="1" tooltips="1" connect="1" arrows="1" fold="1" page="1" pageScale="1" pageWidth="827" pageHeight="1169" math="0" shadow="0">
      <root>
        <mxCell id="0" />
        <mxCell id="1" parent="0" />
        <mxCell id="pCKiygffDv5xiWsr2alK-1" value="&amp;nbsp; &amp;nbsp; Прогрессия" style="swimlane;fontStyle=0;childLayout=stackLayout;horizontal=1;startSize=26;fillColor=#dae8fc;horizontalStack=0;resizeParent=1;resizeParentMax=0;resizeLast=0;collapsible=1;marginBottom=0;whiteSpace=wrap;html=1;strokeColor=#6c8ebf;align=left;" vertex="1" parent="1">
          <mxGeometry x="80" y="160" width="190" height="78" as="geometry" />
        </mxCell>
        <mxCell id="pCKiygffDv5xiWsr2alK-2" value="- numbers: int[]" style="text;strokeColor=none;fillColor=none;align=left;verticalAlign=top;spacingLeft=4;spacingRight=4;overflow=hidden;rotatable=0;points=[[0,0.5],[1,0.5]];portConstraint=eastwest;whiteSpace=wrap;html=1;" vertex="1" parent="pCKiygffDv5xiWsr2alK-1">
          <mxGeometry y="26" width="190" height="26" as="geometry" />
        </mxCell>
        <mxCell id="pCKiygffDv5xiWsr2alK-3" value="+ answer: bool" style="text;strokeColor=none;fillColor=none;align=left;verticalAlign=top;spacingLeft=4;spacingRight=4;overflow=hidden;rotatable=0;points=[[0,0.5],[1,0.5]];portConstraint=eastwest;whiteSpace=wrap;html=1;" vertex="1" parent="pCKiygffDv5xiWsr2alK-1">
          <mxGeometry y="52" width="190" height="26" as="geometry" />
        </mxCell>
        <mxCell id="pCKiygffDv5xiWsr2alK-4" value="" style="endArrow=none;dashed=1;html=1;rounded=0;exitX=-0.001;exitY=1.011;exitDx=0;exitDy=0;exitPerimeter=0;entryX=0.999;entryY=0.011;entryDx=0;entryDy=0;entryPerimeter=0;" edge="1" parent="pCKiygffDv5xiWsr2alK-1" source="pCKiygffDv5xiWsr2alK-2" target="pCKiygffDv5xiWsr2alK-3">
          <mxGeometry width="50" height="50" relative="1" as="geometry">
            <mxPoint x="300" y="300" as="sourcePoint" />
            <mxPoint x="350" y="250" as="targetPoint" />
          </mxGeometry>
        </mxCell>
        <mxCell id="pCKiygffDv5xiWsr2alK-5" value="&amp;nbsp; &amp;nbsp; Графичек" style="swimlane;fontStyle=0;childLayout=stackLayout;horizontal=1;startSize=26;fillColor=#dae8fc;horizontalStack=0;resizeParent=1;resizeParentMax=0;resizeLast=0;collapsible=1;marginBottom=0;whiteSpace=wrap;html=1;strokeColor=#6c8ebf;align=left;" vertex="1" parent="1">
          <mxGeometry x="380" y="160" width="190" height="78" as="geometry" />
        </mxCell>
        <mxCell id="pCKiygffDv5xiWsr2alK-6" value="- numbers: int[]" style="text;strokeColor=none;fillColor=none;align=left;verticalAlign=top;spacingLeft=4;spacingRight=4;overflow=hidden;rotatable=0;points=[[0,0.5],[1,0.5]];portConstraint=eastwest;whiteSpace=wrap;html=1;" vertex="1" parent="pCKiygffDv5xiWsr2alK-5">
          <mxGeometry y="26" width="190" height="26" as="geometry" />
        </mxCell>
        <mxCell id="pCKiygffDv5xiWsr2alK-7" value="+ graph: Canvas" style="text;strokeColor=none;fillColor=none;align=left;verticalAlign=top;spacingLeft=4;spacingRight=4;overflow=hidden;rotatable=0;points=[[0,0.5],[1,0.5]];portConstraint=eastwest;whiteSpace=wrap;html=1;" vertex="1" parent="pCKiygffDv5xiWsr2alK-5">
          <mxGeometry y="52" width="190" height="26" as="geometry" />
        </mxCell>
        <mxCell id="pCKiygffDv5xiWsr2alK-8" value="&amp;nbsp; &amp;nbsp; &amp;lt;&amp;lt;Интерфейс: практика&amp;gt;&amp;gt;&lt;div&gt;tbTextChanged&lt;/div&gt;" style="swimlane;fontStyle=0;childLayout=stackLayout;horizontal=1;startSize=26;fillColor=#dae8fc;horizontalStack=0;resizeParent=1;resizeParentMax=0;resizeLast=0;collapsible=1;marginBottom=0;whiteSpace=wrap;html=1;strokeColor=#6c8ebf;align=left;" vertex="1" parent="1">
          <mxGeometry x="220" y="280" width="180" height="104" as="geometry" />
        </mxCell>
        <mxCell id="pCKiygffDv5xiWsr2alK-9" value="- sender: object" style="text;strokeColor=none;fillColor=none;align=left;verticalAlign=top;spacingLeft=4;spacingRight=4;overflow=hidden;rotatable=0;points=[[0,0.5],[1,0.5]];portConstraint=eastwest;whiteSpace=wrap;html=1;" vertex="1" parent="pCKiygffDv5xiWsr2alK-8">
          <mxGeometry y="26" width="180" height="26" as="geometry" />
        </mxCell>
        <mxCell id="pCKiygffDv5xiWsr2alK-10" value="- e: TextChangingEventArgs" style="text;strokeColor=none;fillColor=none;align=left;verticalAlign=top;spacingLeft=4;spacingRight=4;overflow=hidden;rotatable=0;points=[[0,0.5],[1,0.5]];portConstraint=eastwest;whiteSpace=wrap;html=1;" vertex="1" parent="pCKiygffDv5xiWsr2alK-8">
          <mxGeometry y="52" width="180" height="26" as="geometry" />
        </mxCell>
        <mxCell id="pCKiygffDv5xiWsr2alK-11" value="+ graph: Canvas" style="text;strokeColor=none;fillColor=none;align=left;verticalAlign=top;spacingLeft=4;spacingRight=4;overflow=hidden;rotatable=0;points=[[0,0.5],[1,0.5]];portConstraint=eastwest;whiteSpace=wrap;html=1;" vertex="1" parent="pCKiygffDv5xiWsr2alK-8">
          <mxGeometry y="78" width="180" height="26" as="geometry" />
        </mxCell>
        <mxCell id="pCKiygffDv5xiWsr2alK-12" value="" style="endArrow=none;dashed=1;html=1;rounded=0;exitX=-0.006;exitY=1.073;exitDx=0;exitDy=0;exitPerimeter=0;" edge="1" parent="pCKiygffDv5xiWsr2alK-8" source="pCKiygffDv5xiWsr2alK-10">
          <mxGeometry width="50" height="50" relative="1" as="geometry">
            <mxPoint x="130" y="60" as="sourcePoint" />
            <mxPoint x="180" y="80" as="targetPoint" />
          </mxGeometry>
        </mxCell>
        <mxCell id="pCKiygffDv5xiWsr2alK-13" value="" style="endArrow=block;html=1;rounded=0;exitX=0.478;exitY=1.053;exitDx=0;exitDy=0;exitPerimeter=0;entryX=0;entryY=0.992;entryDx=0;entryDy=0;entryPerimeter=0;dashed=1;endFill=0;" edge="1" parent="1" source="pCKiygffDv5xiWsr2alK-3" target="pCKiygffDv5xiWsr2alK-9">
          <mxGeometry width="50" height="50" relative="1" as="geometry">
            <mxPoint x="230" y="370" as="sourcePoint" />
            <mxPoint x="280" y="320" as="targetPoint" />
            <Array as="points">
              <mxPoint x="170" y="330" />
            </Array>
          </mxGeometry>
        </mxCell>
        <mxCell id="pCKiygffDv5xiWsr2alK-14" value="" style="endArrow=block;html=1;rounded=0;exitX=0.504;exitY=1.027;exitDx=0;exitDy=0;exitPerimeter=0;entryX=1;entryY=0.923;entryDx=0;entryDy=0;entryPerimeter=0;dashed=1;endFill=0;" edge="1" parent="1" source="pCKiygffDv5xiWsr2alK-7" target="pCKiygffDv5xiWsr2alK-9">
          <mxGeometry width="50" height="50" relative="1" as="geometry">
            <mxPoint x="230" y="370" as="sourcePoint" />
            <mxPoint x="280" y="320" as="targetPoint" />
            <Array as="points">
              <mxPoint x="476" y="330" />
            </Array>
          </mxGeometry>
        </mxCell>
      </root>
    </mxGraphModel>
  </diagram>
</mxfile>
